<?xml version="1.0" encoding="utf-8"?>
<!-- Generator: Adobe Illustrator 28.1.0, SVG Export Plug-In . SVG Version: 6.00 Build 0)  -->
<svg version="1.1" id="Ebene_1" xmlns="http://www.w3.org/2000/svg" xmlns:xlink="http://www.w3.org/1999/xlink" x="0px" y="0px"
	 viewBox="0 0 839.39 1059.3" style="enable-background:new 0 0 839.39 1059.3;" xml:space="preserve">
<style type="text/css">
	.st0{fill:none;stroke:url(#SVGID_1_);stroke-width:0.5;stroke-miterlimit:10;}
	.st1{fill:none;stroke:url(#SVGID_00000003817842959376280520000014009719657532249023_);stroke-width:0.5;stroke-miterlimit:10;}
	.st2{fill:none;stroke:url(#SVGID_00000119076154533605775470000001239330332777863336_);stroke-width:0.5;stroke-miterlimit:10;}
	.st3{fill:none;stroke:url(#SVGID_00000034051703793481858250000010939978035398205848_);stroke-width:0.5;stroke-miterlimit:10;}
	.st4{fill:none;stroke:url(#SVGID_00000018231071713092860440000008302872250227471499_);stroke-width:0.5;stroke-miterlimit:10;}
	.st5{fill:none;stroke:url(#SVGID_00000055673427838140314490000007776999688776924558_);stroke-width:0.5;stroke-miterlimit:10;}
	.st6{fill:none;stroke:url(#SVGID_00000112609513856941606210000005340853974469595562_);stroke-width:0.5;stroke-miterlimit:10;}
	.st7{fill:none;stroke:url(#SVGID_00000146488068807241603960000013608055704780998589_);stroke-width:0.5;stroke-miterlimit:10;}
	.st8{fill:none;stroke:url(#SVGID_00000056415774542727595090000008513794062425096883_);stroke-width:0.5;stroke-miterlimit:10;}
	.st9{fill:none;stroke:url(#SVGID_00000116957390482866792410000013981324269593531299_);stroke-width:0.5;stroke-miterlimit:10;}
	.st10{fill:none;stroke:url(#SVGID_00000017500128777822200100000005495979169504329348_);stroke-width:0.5;stroke-miterlimit:10;}
	.st11{fill:none;stroke:url(#SVGID_00000038388990787258670920000017032569569320424889_);stroke-width:0.5;stroke-miterlimit:10;}
	.st12{fill:none;stroke:url(#SVGID_00000167358507925002186020000010669546733653654718_);stroke-width:0.5;stroke-miterlimit:10;}
	.st13{fill:none;stroke:url(#SVGID_00000156554904982322873670000013062417404790254474_);stroke-width:0.5;stroke-miterlimit:10;}
	.st14{fill:none;stroke:url(#SVGID_00000099638233011781947260000002522553107430959037_);stroke-width:0.5;stroke-miterlimit:10;}
	.st15{fill:none;stroke:url(#SVGID_00000033354447482539192810000000710896099107068057_);stroke-width:0.5;stroke-miterlimit:10;}
	.st16{fill:none;stroke:url(#SVGID_00000057150029633136664330000010155653175951588788_);stroke-width:0.5;stroke-miterlimit:10;}
	.st17{fill:none;stroke:url(#SVGID_00000096742866434458677040000005177815315668733597_);stroke-width:0.5;stroke-miterlimit:10;}
	.st18{fill:none;stroke:url(#SVGID_00000100381488065621681600000006339210737575697051_);stroke-width:0.5;stroke-miterlimit:10;}
	.st19{fill:none;stroke:url(#SVGID_00000103237974777867590380000010196848004955233673_);stroke-width:0.5;stroke-miterlimit:10;}
	.st20{fill:none;stroke:url(#SVGID_00000025425326911581559530000009759042394085908099_);stroke-width:0.5;stroke-miterlimit:10;}
	.st21{fill:none;stroke:url(#SVGID_00000078016512372970650240000009235493193614032535_);stroke-width:0.5;stroke-miterlimit:10;}
	.st22{fill:none;stroke:url(#SVGID_00000096046135550601937750000011897823954360246426_);stroke-width:0.5;stroke-miterlimit:10;}
	.st23{fill:none;stroke:url(#SVGID_00000062187399555722590160000009014702317188066750_);stroke-width:0.5;stroke-miterlimit:10;}
	.st24{fill:none;stroke:url(#SVGID_00000161620942417443558370000014434072461064898215_);stroke-width:0.5;stroke-miterlimit:10;}
	.st25{fill:none;stroke:url(#SVGID_00000074400789100568949870000010985255364444333231_);stroke-width:0.5;stroke-miterlimit:10;}
	.st26{fill:none;stroke:url(#SVGID_00000134209946293289039390000001655635080047484333_);stroke-width:0.5;stroke-miterlimit:10;}
	.st27{fill:none;stroke:url(#SVGID_00000118364333438997627890000013363705806625470905_);stroke-width:0.5;stroke-miterlimit:10;}
	.st28{fill:none;stroke:url(#SVGID_00000054241967306168934130000012971507177436432525_);stroke-width:0.5;stroke-miterlimit:10;}
	.st29{fill:none;stroke:url(#SVGID_00000007405452561490129170000000700782941216254860_);stroke-width:0.5;stroke-miterlimit:10;}
	.st30{fill:none;stroke:url(#SVGID_00000139976863294176824920000011329304430280281234_);stroke-width:0.5;stroke-miterlimit:10;}
	.st31{fill:none;stroke:url(#SVGID_00000070110178385282637290000017052030214208484247_);stroke-width:0.5;stroke-miterlimit:10;}
	.st32{fill:none;stroke:url(#SVGID_00000021091470894135794680000000760413900980071300_);stroke-width:0.5;stroke-miterlimit:10;}
	.st33{fill:none;stroke:url(#SVGID_00000140726010524515638090000012488928841177373602_);stroke-width:0.5;stroke-miterlimit:10;}
	.st34{fill:none;stroke:url(#SVGID_00000160159885508270865730000010571128176903783319_);stroke-width:0.5;stroke-miterlimit:10;}
	.st35{fill:none;stroke:url(#SVGID_00000176043647361185437600000005684780935760217500_);stroke-width:0.5;stroke-miterlimit:10;}
	.st36{fill:none;stroke:url(#SVGID_00000134238491350242010560000012119743365884102043_);stroke-width:0.5;stroke-miterlimit:10;}
	.st37{fill:none;stroke:url(#SVGID_00000178181691786781160250000012119412791822687422_);stroke-width:0.5;stroke-miterlimit:10;}
	.st38{fill:none;stroke:url(#SVGID_00000143597275975379447390000002508229764527253658_);stroke-width:0.5;stroke-miterlimit:10;}
	.st39{fill:none;stroke:url(#SVGID_00000003796144996176252150000001131696283756103351_);stroke-width:0.5;stroke-miterlimit:10;}
	.st40{fill:none;stroke:url(#SVGID_00000003823588225408937040000014886922785615330464_);stroke-width:0.5;stroke-miterlimit:10;}
	.st41{fill:none;stroke:url(#SVGID_00000114761928774807041940000009454205776229709220_);stroke-width:0.5;stroke-miterlimit:10;}
</style>
<g>
	
		<linearGradient id="SVGID_1_" gradientUnits="userSpaceOnUse" x1="-34.5525" y1="187.5537" x2="613.8215" y2="835.9276" gradientTransform="matrix(1 0 0 -1 0 1057.8899)">
		<stop  offset="0" style="stop-color:#FF4B4B"/>
		<stop  offset="1" style="stop-color:#FF744F"/>
	</linearGradient>
	<path class="st0" d="M580.07,270.33c-108.85-19.48-127.1-41.94-151.69-115.5C400.87,65.46,317.66,0.5,219.26,0.5
		C98.44,0.5,0.5,98.44,0.5,219.26c0,87.56,51.45,163.1,125.77,198.05c70.62,34.92,90.18,55.93,94.34,169.49l0.02-0.02
		c0.16,4.39,0.39,8.75,0.73,13.09c8.32,113.97-14.15,135.03-67.26,159.26l0.01,0.01c-54.13,24.75-91.77,79.33-91.77,142.74
		c0,86.66,70.25,156.91,156.91,156.91c66.21,0,122.8-41.03,145.84-99.03l0,0c21.59-54.38,41.53-77.87,156.5-75.17
		c0.06,0,0.13,0,0.2,0c0.12,0,0.24,0,0.36,0.01l0,0c2.49,0.06,4.99,0.09,7.49,0.09c170.79,0,309.24-138.45,309.24-309.24
		C838.89,421.85,726.88,294.41,580.07,270.33z"/>
	
		<linearGradient id="SVGID_00000155112634039868043420000004399707730427842445_" gradientUnits="userSpaceOnUse" x1="-26.0236" y1="190.3699" x2="606.7227" y2="823.1163" gradientTransform="matrix(1 0 0 -1 0 1057.8899)">
		<stop  offset="0" style="stop-color:#FF4B4B"/>
		<stop  offset="1" style="stop-color:#FF744F"/>
	</linearGradient>
	
		<path style="fill:none;stroke:url(#SVGID_00000155112634039868043420000004399707730427842445_);stroke-width:0.5;stroke-miterlimit:10;" d="
		M574.01,281.75c-106.41-18.25-124.95-40.66-148.1-112.76C398.01,82.07,317.82,18.31,221.76,18.31
		c-117.95,0-213.57,95.62-213.57,213.57c0,85.49,50.57,158.52,122.79,193.36c69.27,33.42,88.04,54.6,92.11,165.47l0.02-0.02
		c0.15,4.28,0.39,8.54,0.71,12.78c8.41,111.24-13.82,131.82-65.66,155.48l0.01,0.01c-52.85,24.16-89.59,77.45-89.59,139.36
		c0,84.6,68.59,153.19,153.19,153.19c64.64,0,119.89-40.05,142.38-96.68l0,0c21.07-53.09,40.54-76.03,152.79-73.39
		c0.06,0,0.13,0,0.19,0c0.12,0,0.23,0,0.35,0.01l0,0c2.43,0.06,4.87,0.09,7.31,0.09c166.74,0,301.91-135.17,301.91-301.91
		C826.69,429.66,717.16,306.29,574.01,281.75z"/>
	
		<linearGradient id="SVGID_00000090991933682124863970000003051233079335185852_" gradientUnits="userSpaceOnUse" x1="-17.5196" y1="193.1734" x2="599.8718" y2="810.5648" gradientTransform="matrix(1 0 0 -1 0 1057.8899)">
		<stop  offset="0" style="stop-color:#FF4B4B"/>
		<stop  offset="1" style="stop-color:#FF744F"/>
	</linearGradient>
	
		<path style="fill:none;stroke:url(#SVGID_00000090991933682124863970000003051233079335185852_);stroke-width:0.5;stroke-miterlimit:10;" d="
		M567.95,293.16c-103.82-17.8-121.92-39.67-144.5-110.02C396.23,98.33,317.99,36.13,224.26,36.13
		c-115.09,0-208.38,93.3-208.38,208.38c0,83.41,49.34,154.67,119.8,188.66c67.59,32.6,85.9,53.28,89.87,161.45l0.02-0.02
		c0.15,4.18,0.38,8.34,0.69,12.47c8.2,108.54-13.48,128.62-64.07,151.7l0.01,0.01c-51.57,23.57-87.42,75.57-87.42,135.97
		c0,82.55,66.92,149.47,149.47,149.47c63.07,0,116.97-39.08,138.92-94.33l0,0c20.56-51.8,39.56-74.18,149.07-71.6
		c0.06,0,0.12,0,0.19,0c0.12,0,0.23,0,0.34,0.01l0,0c2.37,0.06,4.75,0.09,7.14,0.09c162.69,0,294.57-131.88,294.57-294.57
		C814.5,437.48,707.62,317.11,567.95,293.16z"/>
	
		<linearGradient id="SVGID_00000085209360914304401690000015577331843832269731_" gradientUnits="userSpaceOnUse" x1="-8.9902" y1="196.0089" x2="593.0184" y2="798.0177" gradientTransform="matrix(1 0 0 -1 0 1057.8899)">
		<stop  offset="0" style="stop-color:#FF4B4B"/>
		<stop  offset="1" style="stop-color:#FF744F"/>
	</linearGradient>
	
		<path style="fill:none;stroke:url(#SVGID_00000085209360914304401690000015577331843832269731_);stroke-width:0.5;stroke-miterlimit:10;" d="
		M561.89,304.57c-101.23-17.36-118.88-38.68-140.9-107.28C394.45,114.6,318.15,53.94,226.76,53.94
		c-112.22,0-203.19,90.97-203.19,203.19c0,81.33,48.11,150.82,116.82,183.96c65.91,31.79,83.76,51.95,87.63,157.43l0.02-0.02
		c0.15,4.07,0.37,8.13,0.68,12.16c8,105.84-13.15,125.42-62.47,147.92l0.01,0.01c-50.28,22.98-85.24,73.69-85.24,132.58
		c0,80.49,65.25,145.74,145.74,145.74c61.5,0,114.06-38.11,135.46-91.98l0,0c20.05-50.51,38.57-72.33,145.36-69.82
		c0.06,0,0.12,0,0.18,0c0.11,0,0.22,0,0.34,0.01l0,0c2.31,0.06,4.63,0.09,6.96,0.09c158.64,0,287.23-128.6,287.23-287.23
		C802.3,445.3,698.08,327.93,561.89,304.57z"/>
	
		<linearGradient id="SVGID_00000067230368216783435840000001701500680743998866_" gradientUnits="userSpaceOnUse" x1="-0.4659" y1="198.8159" x2="586.1778" y2="785.4594" gradientTransform="matrix(1 0 0 -1 0 1057.8899)">
		<stop  offset="0" style="stop-color:#FF4B4B"/>
		<stop  offset="1" style="stop-color:#FF744F"/>
	</linearGradient>
	
		<path style="fill:none;stroke:url(#SVGID_00000067230368216783435840000001701500680743998866_);stroke-width:0.5;stroke-miterlimit:10;" d="
		M555.83,315.99c-98.65-16.92-115.84-37.7-137.3-104.54C392.66,130.87,318.32,71.76,229.26,71.76c-109.35,0-198,88.65-198,198
		c0,79.26,46.89,146.96,113.84,179.26c64.22,30.98,81.62,50.62,85.39,153.4l0.02-0.02c0.14,3.97,0.36,7.92,0.66,11.85
		c7.8,103.13-12.81,122.21-60.87,144.15l0.01,0.01c-49,22.4-83.06,71.8-83.06,129.2c0,78.44,63.59,142.02,142.02,142.02
		c59.93,0,111.15-37.13,132-89.63l0,0c19.54-49.22,37.59-70.48,141.65-68.04c0.06,0,0.12,0,0.18,0c0.11,0,0.22,0,0.33,0.01l0,0
		c2.25,0.05,4.51,0.09,6.78,0.09c154.58,0,279.9-125.31,279.9-279.9C790.1,453.12,688.54,338.74,555.83,315.99z"/>
	
		<linearGradient id="SVGID_00000079455717262010087140000014222301994654022531_" gradientUnits="userSpaceOnUse" x1="8.0392" y1="201.6321" x2="579.3217" y2="772.9147" gradientTransform="matrix(1 0 0 -1 0 1057.8899)">
		<stop  offset="0" style="stop-color:#FF4B4B"/>
		<stop  offset="1" style="stop-color:#FF744F"/>
	</linearGradient>
	
		<path style="fill:none;stroke:url(#SVGID_00000079455717262010087140000014222301994654022531_);stroke-width:0.5;stroke-miterlimit:10;" d="
		M549.77,327.4c-96.06-16.47-112.81-36.71-133.7-101.8c-25.19-78.47-97.59-136.03-184.31-136.03
		c-106.49,0-192.81,86.33-192.81,192.81c0,77.18,45.66,143.11,110.85,174.56c62.54,30.17,79.48,49.3,83.15,149.38l0.02-0.01
		c0.14,3.87,0.35,7.71,0.64,11.54c7.59,100.43-12.48,119.01-59.28,140.37l0.01,0.01c-47.71,21.81-80.88,69.92-80.88,125.81
		c0,76.38,61.92,138.3,138.3,138.3c58.36,0,108.23-36.16,128.54-87.28l0,0c19.03-47.93,36.6-68.64,137.94-66.25
		c0.06,0,0.11,0,0.17,0c0.11,0,0.21,0,0.32,0.01l0,0c2.19,0.05,4.4,0.08,6.6,0.08c150.53,0,272.56-122.03,272.56-272.56
		C777.9,460.94,679.01,349.56,549.77,327.4z"/>
	
		<linearGradient id="SVGID_00000091729269895231851770000005078456332156337591_" gradientUnits="userSpaceOnUse" x1="16.5683" y1="204.4506" x2="572.4772" y2="760.3596" gradientTransform="matrix(1 0 0 -1 0 1057.8899)">
		<stop  offset="0" style="stop-color:#FF4B4B"/>
		<stop  offset="1" style="stop-color:#FF744F"/>
	</linearGradient>
	
		<path style="fill:none;stroke:url(#SVGID_00000091729269895231851770000005078456332156337591_);stroke-width:0.5;stroke-miterlimit:10;" d="
		M543.71,338.81c-93.48-16.03-109.77-35.72-130.1-99.06c-24.51-76.36-94.96-132.37-179.35-132.37c-103.62,0-187.62,84-187.62,187.62
		c0,75.1,44.43,139.26,107.87,169.86c60.86,29.36,77.34,47.97,80.92,145.36l0.02-0.01c0.14,3.76,0.34,7.5,0.63,11.23
		c7.39,97.73-12.14,115.81-57.68,136.59l0.01,0.01c-46.43,21.22-78.71,68.04-78.71,122.43c0,74.33,60.25,134.58,134.58,134.58
		c56.78,0,105.32-35.19,125.08-84.93l0,0c18.51-46.64,35.62-66.79,134.22-64.47c0.06,0,0.11,0,0.17,0c0.1,0,0.21,0,0.31,0.01l0,0
		c2.14,0.05,4.28,0.08,6.43,0.08c146.48,0,265.23-118.75,265.23-265.23C765.7,468.76,669.47,360.38,543.71,338.81z"/>
	
		<linearGradient id="SVGID_00000034047600666068658620000002266574317510385070_" gradientUnits="userSpaceOnUse" x1="25.0789" y1="207.2787" x2="565.6177" y2="747.8175" gradientTransform="matrix(1 0 0 -1 0 1057.8899)">
		<stop  offset="0" style="stop-color:#FF4B4B"/>
		<stop  offset="1" style="stop-color:#FF744F"/>
	</linearGradient>
	
		<path style="fill:none;stroke:url(#SVGID_00000034047600666068658620000002266574317510385070_);stroke-width:0.5;stroke-miterlimit:10;" d="
		M537.65,350.23c-90.89-15.59-106.73-34.73-126.5-96.32c-23.84-74.25-92.33-128.71-174.39-128.71
		c-100.75,0-182.43,81.68-182.43,182.43c0,73.02,43.2,135.41,104.88,165.16c59.17,28.54,75.2,46.64,78.68,141.34l0.02-0.01
		c0.13,3.66,0.33,7.3,0.61,10.91c7.18,95.02-11.8,112.6-56.09,132.81l0.01,0.01c-45.14,20.64-76.53,66.16-76.53,119.04
		c0,72.27,58.59,130.85,130.85,130.85c55.21,0,102.41-34.21,121.62-82.58l0,0c18-45.35,34.63-64.94,130.51-62.69
		c0.05,0,0.11,0,0.16,0c0.1,0,0.2,0,0.3,0.01l0,0c2.08,0.05,4.16,0.08,6.25,0.08c142.43,0,257.89-115.46,257.89-257.89
		C753.5,476.58,659.93,371.19,537.65,350.23z"/>
	
		<linearGradient id="SVGID_00000007428631783752212700000011592906954813795474_" gradientUnits="userSpaceOnUse" x1="33.6029" y1="210.0958" x2="558.7697" y2="735.2625" gradientTransform="matrix(1 0 0 -1 0 1057.8899)">
		<stop  offset="0" style="stop-color:#FF4B4B"/>
		<stop  offset="1" style="stop-color:#FF744F"/>
	</linearGradient>
	
		<path style="fill:none;stroke:url(#SVGID_00000007428631783752212700000011592906954813795474_);stroke-width:0.5;stroke-miterlimit:10;" d="
		M531.59,361.64c-88.31-15.14-103.7-33.74-122.9-93.58c-23.16-72.14-89.71-125.05-169.43-125.05
		c-97.89,0-177.24,79.35-177.24,177.24c0,70.95,41.97,131.56,101.9,160.47c57.49,27.73,73.06,45.32,76.44,137.32l0.02-0.01
		c0.13,3.55,0.33,7.09,0.59,10.6c6.98,92.32-11.47,109.4-54.49,129.03l0.01,0.01c-43.86,20.05-74.35,64.28-74.35,115.65
		c0,70.21,56.92,127.13,127.13,127.13c53.64,0,99.49-33.24,118.16-80.23l0,0c17.49-44.06,33.65-63.09,126.8-60.9
		c0.05,0,0.11,0,0.16,0c0.1,0,0.19,0,0.29,0.01l0,0c2.02,0.05,4.04,0.08,6.07,0.08c138.38,0,250.55-112.18,250.55-250.55
		C741.3,484.4,650.39,382.01,531.59,361.64z"/>
	
		<linearGradient id="SVGID_00000100365886474599226350000000767171079059982476_" gradientUnits="userSpaceOnUse" x1="42.0854" y1="212.9109" x2="551.9035" y2="722.7288" gradientTransform="matrix(1 0 0 -1 0 1057.8899)">
		<stop  offset="0" style="stop-color:#FF4B4B"/>
		<stop  offset="1" style="stop-color:#FF744F"/>
	</linearGradient>
	
		<path style="fill:none;stroke:url(#SVGID_00000100365886474599226350000000767171079059982476_);stroke-width:0.5;stroke-miterlimit:10;" d="
		M525.53,373.05c-85.72-14.7-100.66-32.76-119.31-90.84c-22.48-70.03-87.08-121.39-164.47-121.39
		c-95.02,0-172.05,77.03-172.05,172.05c0,68.87,40.74,127.7,98.92,155.77c55.81,26.92,70.92,43.99,74.2,133.3l0.01-0.01
		c0.12,3.45,0.32,6.88,0.57,10.29c6.77,89.62-11.13,106.2-52.9,125.25l0.01,0.01c-42.58,19.46-72.18,62.39-72.18,112.27
		c0,68.16,55.25,123.41,123.41,123.41c52.07,0,96.58-32.27,114.7-77.89l0,0c16.98-42.77,32.66-61.25,123.09-59.12
		c0.05,0,0.1,0,0.15,0c0.1,0,0.19,0,0.28,0.01l0,0c1.96,0.05,3.92,0.07,5.89,0.07c134.32,0,243.22-108.89,243.22-243.22
		C729.1,492.21,640.85,392.83,525.53,373.05z"/>
	
		<linearGradient id="SVGID_00000109725371482330558170000011489939745286979970_" gradientUnits="userSpaceOnUse" x1="50.6298" y1="215.7115" x2="545.0782" y2="710.16" gradientTransform="matrix(1 0 0 -1 0 1057.8899)">
		<stop  offset="0" style="stop-color:#FF4B4B"/>
		<stop  offset="1" style="stop-color:#FF744F"/>
	</linearGradient>
	
		<path style="fill:none;stroke:url(#SVGID_00000109725371482330558170000011489939745286979970_);stroke-width:0.5;stroke-miterlimit:10;" d="
		M519.48,384.47c-83.13-14.26-97.63-31.77-115.71-88.1c-21.8-67.91-84.45-117.72-159.5-117.72c-92.16,0-166.86,74.71-166.86,166.86
		c0,66.79,39.51,123.85,95.93,151.07c54.12,26.11,68.78,42.66,71.96,129.28l0.01-0.01c0.12,3.34,0.31,6.67,0.56,9.98
		c6.57,86.91-10.8,102.99-51.3,121.48l0.01,0.01c-41.29,18.88-70,60.51-70,108.88c0,66.1,53.59,119.69,119.69,119.69
		c50.5,0,93.67-31.29,111.24-75.54l0,0c16.47-41.48,31.68-59.4,119.37-57.34c0.05,0,0.1,0,0.15,0c0.09,0,0.18,0,0.28,0.01l0,0
		c1.9,0.05,3.8,0.07,5.71,0.07c130.27,0,235.88-105.61,235.88-235.88C716.9,500.03,631.32,403.64,519.48,384.47z"/>
	
		<linearGradient id="SVGID_00000054965938293591129460000009984964428894547607_" gradientUnits="userSpaceOnUse" x1="59.1457" y1="218.5368" x2="538.222" y2="697.6131" gradientTransform="matrix(1 0 0 -1 0 1057.8899)">
		<stop  offset="0" style="stop-color:#FF4B4B"/>
		<stop  offset="1" style="stop-color:#FF744F"/>
	</linearGradient>
	
		<path style="fill:none;stroke:url(#SVGID_00000054965938293591129460000009984964428894547607_);stroke-width:0.5;stroke-miterlimit:10;" d="
		M513.42,395.88c-80.55-13.81-94.59-30.78-112.11-85.36c-21.12-65.8-81.83-114.06-154.54-114.06
		c-89.29,0-161.67,72.38-161.67,161.67c0,64.71,38.28,120,92.95,146.37c52.44,25.3,66.64,41.33,69.72,125.26l0.01-0.01
		c0.12,3.24,0.3,6.47,0.54,9.67c6.37,84.21-10.46,99.79-49.71,117.7l0.01,0.01c-40.01,18.29-67.82,58.63-67.82,105.49
		c0,64.05,51.92,115.96,115.96,115.96c48.93,0,90.75-30.32,107.78-73.19l0,0c15.95-40.19,30.69-57.55,115.66-55.55
		c0.05,0,0.1,0,0.14,0c0.09,0,0.18,0,0.27,0.01l0,0c1.84,0.04,3.69,0.07,5.54,0.07c126.22,0,228.54-102.32,228.54-228.54
		C704.7,507.85,621.78,414.46,513.42,395.88z"/>
	
		<linearGradient id="SVGID_00000106828849605360020890000016082567696906427027_" gradientUnits="userSpaceOnUse" x1="67.6776" y1="221.3562" x2="531.3785" y2="685.0571" gradientTransform="matrix(1 0 0 -1 0 1057.8899)">
		<stop  offset="0" style="stop-color:#FF4B4B"/>
		<stop  offset="1" style="stop-color:#FF744F"/>
	</linearGradient>
	
		<path style="fill:none;stroke:url(#SVGID_00000106828849605360020890000016082567696906427027_);stroke-width:0.5;stroke-miterlimit:10;" d="
		M507.36,407.29c-77.96-13.37-91.55-29.79-108.51-82.62c-20.44-63.69-79.2-110.4-149.58-110.4c-86.42,0-156.48,70.06-156.48,156.48
		c0,62.64,37.05,116.15,89.97,141.67c50.76,24.48,64.51,40.01,67.49,121.24l0.01-0.01c0.11,3.14,0.29,6.26,0.52,9.36
		c6.16,81.51-10.12,96.59-48.11,113.92l0.01,0.01c-38.72,17.7-65.64,56.75-65.64,102.11c0,61.99,50.25,112.24,112.24,112.24
		c47.36,0,87.84-29.35,104.32-70.84l0,0c15.44-38.9,29.7-55.7,111.95-53.77c0.05,0,0.09,0,0.14,0c0.09,0,0.17,0,0.26,0.01l0,0
		c1.78,0.04,3.57,0.07,5.36,0.07c122.17,0,221.21-99.04,221.21-221.21C692.5,515.67,612.24,425.28,507.36,407.29z"/>
	
		<linearGradient id="SVGID_00000183240326655805398530000005273917545174137766_" gradientUnits="userSpaceOnUse" x1="76.1854" y1="224.1734" x2="524.5222" y2="672.5101" gradientTransform="matrix(1 0 0 -1 0 1057.8899)">
		<stop  offset="0" style="stop-color:#FF4B4B"/>
		<stop  offset="1" style="stop-color:#FF744F"/>
	</linearGradient>
	
		<path style="fill:none;stroke:url(#SVGID_00000183240326655805398530000005273917545174137766_);stroke-width:0.5;stroke-miterlimit:10;" d="
		M501.3,418.71c-75.38-12.93-88.52-28.8-104.91-79.88c-19.77-61.58-76.57-106.74-144.62-106.74c-83.56,0-151.29,67.74-151.29,151.29
		c0,60.56,35.83,112.29,86.98,136.97c49.07,23.67,62.37,38.68,65.25,117.22l0.01-0.01c0.11,3.03,0.28,6.05,0.5,9.05
		c5.96,78.8-9.79,93.38-46.51,110.14l0.01,0.01c-37.44,17.11-63.47,54.87-63.47,98.72c0,59.93,48.59,108.52,108.52,108.52
		c45.79,0,84.93-28.37,100.86-68.49l0,0c14.93-37.61,28.72-53.86,108.23-51.99c0.04,0,0.09,0,0.13,0c0.08,0,0.17,0,0.25,0.01l0,0
		c1.72,0.04,3.45,0.07,5.18,0.07c118.12,0,213.87-95.75,213.87-213.87C680.3,523.49,602.7,436.09,501.3,418.71z"/>
	
		<linearGradient id="SVGID_00000029731633868459206500000008905367538612495007_" gradientUnits="userSpaceOnUse" x1="84.7085" y1="226.9977" x2="517.6708" y2="659.96" gradientTransform="matrix(1 0 0 -1 0 1057.8899)">
		<stop  offset="0" style="stop-color:#FF4B4B"/>
		<stop  offset="1" style="stop-color:#FF744F"/>
	</linearGradient>
	
		<path style="fill:none;stroke:url(#SVGID_00000029731633868459206500000008905367538612495007_);stroke-width:0.5;stroke-miterlimit:10;" d="
		M495.24,430.12c-72.79-12.48-85.48-27.82-101.31-77.14c-19.09-59.46-73.95-103.08-139.66-103.08c-80.69,0-146.1,65.41-146.1,146.1
		c0,58.48,34.6,108.44,84,132.27c47.39,22.86,60.23,37.35,63.01,113.2l0.01-0.01c0.11,2.93,0.27,5.84,0.49,8.74
		c5.75,76.1-9.45,90.18-44.92,106.36l0.01,0.01c-36.15,16.53-61.29,52.98-61.29,95.33c0,57.88,46.92,104.8,104.8,104.8
		c44.22,0,82.01-27.4,97.4-66.14l0,0c14.42-36.32,27.73-52.01,104.52-50.2c0.04,0,0.09,0,0.13,0c0.08,0,0.16,0,0.24,0.01l0,0
		c1.66,0.04,3.33,0.06,5,0.06c114.07,0,206.53-92.47,206.53-206.53C668.1,531.31,593.16,446.91,495.24,430.12z"/>
	
		<linearGradient id="SVGID_00000141456565251438664010000017805011185595036831_" gradientUnits="userSpaceOnUse" x1="93.2198" y1="229.8114" x2="510.8214" y2="647.4131" gradientTransform="matrix(1 0 0 -1 0 1057.8899)">
		<stop  offset="0" style="stop-color:#FF4B4B"/>
		<stop  offset="1" style="stop-color:#FF744F"/>
	</linearGradient>
	
		<path style="fill:none;stroke:url(#SVGID_00000141456565251438664010000017805011185595036831_);stroke-width:0.5;stroke-miterlimit:10;" d="
		M489.18,441.53c-70.21-12.04-82.44-26.83-97.71-74.4c-18.41-57.35-71.32-99.42-134.7-99.42c-77.82,0-140.91,63.09-140.91,140.91
		c0,56.4,33.37,104.59,81.01,127.58c45.71,22.05,58.09,36.03,60.77,109.18l0.01-0.01c0.1,2.82,0.26,5.64,0.47,8.43
		c5.55,73.4-9.12,86.98-43.32,102.58l0.01,0.01c-34.87,15.94-59.11,51.1-59.11,91.95c0,55.82,45.25,101.07,101.07,101.07
		c42.65,0,79.1-26.43,93.94-63.79l0,0c13.9-35.03,26.75-50.16,100.81-48.42c0.04,0,0.08,0,0.13,0c0.08,0,0.15,0,0.23,0l0,0
		c1.6,0.04,3.21,0.06,4.83,0.06c110.01,0,199.2-89.18,199.2-199.2C655.9,539.13,583.63,457.73,489.18,441.53z"/>
	
		<linearGradient id="SVGID_00000046318182352367299570000016184084520877692306_" gradientUnits="userSpaceOnUse" x1="101.7273" y1="232.6352" x2="503.9633" y2="634.8713" gradientTransform="matrix(1 0 0 -1 0 1057.8899)">
		<stop  offset="0" style="stop-color:#FF4B4B"/>
		<stop  offset="1" style="stop-color:#FF744F"/>
	</linearGradient>
	
		<path style="fill:none;stroke:url(#SVGID_00000046318182352367299570000016184084520877692306_);stroke-width:0.5;stroke-miterlimit:10;" d="
		M483.12,452.94c-67.62-11.6-79.41-25.84-94.11-71.66c-17.73-55.24-68.69-95.76-129.74-95.76c-74.96,0-135.72,60.77-135.72,135.72
		c0,54.33,32.14,100.74,78.03,122.88c44.02,21.24,55.95,34.7,58.53,105.15l0.01-0.01c0.1,2.72,0.25,5.43,0.45,8.12
		c5.34,70.69-8.78,83.77-41.73,98.81l0.01,0.01c-33.59,15.35-56.94,49.22-56.94,88.56c0,53.77,43.59,97.35,97.35,97.35
		c41.08,0,76.19-25.45,90.48-61.44l0,0c13.39-33.74,25.76-48.31,97.1-46.64c0.04,0,0.08,0,0.12,0c0.08,0,0.15,0,0.22,0l0,0
		c1.55,0.04,3.09,0.06,4.65,0.06c105.96,0,191.86-85.9,191.86-191.86C643.7,546.95,574.09,468.54,483.12,452.94z"/>
	
		<linearGradient id="SVGID_00000180348501736525563180000004700413093385916569_" gradientUnits="userSpaceOnUse" x1="110.2607" y1="235.4431" x2="497.1254" y2="622.3077" gradientTransform="matrix(1 0 0 -1 0 1057.8899)">
		<stop  offset="0" style="stop-color:#FF4B4B"/>
		<stop  offset="1" style="stop-color:#FF744F"/>
	</linearGradient>
	
		<path style="fill:none;stroke:url(#SVGID_00000180348501736525563180000004700413093385916569_);stroke-width:0.5;stroke-miterlimit:10;" d="
		M477.06,464.36c-65.03-11.15-76.37-24.85-90.52-68.92c-17.05-53.13-66.07-92.09-124.78-92.09c-72.09,0-130.53,58.44-130.53,130.53
		c0,52.25,30.91,96.89,75.05,118.18c42.34,20.42,53.81,33.37,56.3,101.13l0.01-0.01c0.09,2.62,0.24,5.22,0.44,7.81
		c5.14,67.99-8.45,80.57-40.13,95.03l0.01,0.01c-32.3,14.77-54.76,47.34-54.76,85.17c0,51.71,41.92,93.63,93.63,93.63
		c39.51,0,73.27-24.48,87.02-59.09l0,0c12.88-32.45,24.78-46.47,93.38-44.85c0.04,0,0.08,0,0.12,0c0.07,0,0.14,0,0.22,0l0,0
		c1.49,0.04,2.98,0.06,4.47,0.06c101.91,0,184.52-82.61,184.52-184.52C631.5,554.76,564.55,479.36,477.06,464.36z"/>
	
		<linearGradient id="SVGID_00000044148954201861505460000013455801825741600926_" gradientUnits="userSpaceOnUse" x1="118.7642" y1="238.261" x2="490.2671" y2="609.7638" gradientTransform="matrix(1 0 0 -1 0 1057.8899)">
		<stop  offset="0" style="stop-color:#FF4B4B"/>
		<stop  offset="1" style="stop-color:#FF744F"/>
	</linearGradient>
	
		<path style="fill:none;stroke:url(#SVGID_00000044148954201861505460000013455801825741600926_);stroke-width:0.5;stroke-miterlimit:10;" d="
		M471,475.77c-62.45-10.71-73.33-23.86-86.92-66.18c-16.38-51.01-63.44-88.43-119.82-88.43c-69.23,0-125.34,56.12-125.34,125.34
		c0,50.17,29.68,93.03,72.06,113.48c40.66,19.61,51.67,32.05,54.06,97.11l0.01-0.01c0.09,2.51,0.23,5.01,0.42,7.5
		c4.94,65.29-8.11,77.37-38.54,91.25l0.01,0.01c-31.02,14.18-52.58,45.46-52.58,81.79c0,49.65,40.25,89.91,89.91,89.91
		c37.94,0,70.36-23.51,83.56-56.74l0,0c12.37-31.16,23.79-44.62,89.67-43.07c0.04,0,0.07,0,0.11,0c0.07,0,0.14,0,0.21,0l0,0
		c1.43,0.03,2.86,0.05,4.29,0.05c97.86,0,177.19-79.33,177.19-177.19C619.3,562.58,555.01,490.18,471,475.77z"/>
	
		<linearGradient id="SVGID_00000114059205922812577270000016542869013673701813_" gradientUnits="userSpaceOnUse" x1="127.2869" y1="241.0931" x2="483.4138" y2="597.2198" gradientTransform="matrix(1 0 0 -1 0 1057.8899)">
		<stop  offset="0" style="stop-color:#FF4B4B"/>
		<stop  offset="1" style="stop-color:#FF744F"/>
	</linearGradient>
	
		<path style="fill:none;stroke:url(#SVGID_00000114059205922812577270000016542869013673701813_);stroke-width:0.5;stroke-miterlimit:10;" d="
		M464.94,487.18c-59.86-10.27-70.3-22.88-83.32-63.44c-15.7-48.9-60.81-84.77-114.86-84.77c-66.36,0-120.15,53.8-120.15,120.15
		c0,48.09,28.45,89.18,69.08,108.78c38.97,18.8,49.53,30.72,51.82,93.09l0.01-0.01c0.09,2.41,0.22,4.81,0.4,7.19
		c4.73,62.58-7.77,74.16-36.94,87.47l0.01,0.01c-29.73,13.59-50.4,43.57-50.4,78.4c0,47.6,38.59,86.18,86.18,86.18
		c36.37,0,67.45-22.53,80.1-54.39l0,0c11.86-29.87,22.81-42.77,85.96-41.29c0.04,0,0.07,0,0.11,0c0.07,0,0.13,0,0.2,0l0,0
		c1.37,0.03,2.74,0.05,4.11,0.05c93.81,0,169.85-76.05,169.85-169.85C607.1,570.4,545.47,500.99,464.94,487.18z"/>
	
		<linearGradient id="SVGID_00000114787781754621396050000018193676401029460115_" gradientUnits="userSpaceOnUse" x1="135.8054" y1="243.8959" x2="476.5708" y2="584.6612" gradientTransform="matrix(1 0 0 -1 0 1057.8899)">
		<stop  offset="0" style="stop-color:#FF4B4B"/>
		<stop  offset="1" style="stop-color:#FF744F"/>
	</linearGradient>
	
		<path style="fill:none;stroke:url(#SVGID_00000114787781754621396050000018193676401029460115_);stroke-width:0.5;stroke-miterlimit:10;" d="
		M458.88,498.6c-57.28-9.82-67.26-21.89-79.72-60.7c-15.02-46.79-58.19-81.11-109.89-81.11c-63.49,0-114.96,51.47-114.96,114.96
		c0,46.02,27.22,85.33,66.1,104.08c37.29,17.99,47.39,29.39,49.58,89.07l0.01-0.01c0.08,2.3,0.21,4.6,0.38,6.88
		c4.53,59.88-7.44,70.96-35.35,83.69l0.01,0.01c-28.45,13-48.23,41.69-48.23,75.02c0,45.54,36.92,82.46,82.46,82.46
		c34.79,0,64.53-21.56,76.64-52.04l0,0c11.34-28.58,21.82-40.92,82.24-39.5c0.03,0,0.07,0,0.1,0c0.06,0,0.13,0,0.19,0l0,0
		c1.31,0.03,2.62,0.05,3.94,0.05c89.75,0,162.52-72.76,162.52-162.52C594.9,578.22,535.94,511.81,458.88,498.6z"/>
	
		<linearGradient id="SVGID_00000122692484398332016650000003061988122192751510_" gradientUnits="userSpaceOnUse" x1="144.3261" y1="246.7128" x2="469.7216" y2="572.1082" gradientTransform="matrix(1 0 0 -1 0 1057.8899)">
		<stop  offset="0" style="stop-color:#FF4B4B"/>
		<stop  offset="1" style="stop-color:#FF744F"/>
	</linearGradient>
	
		<path style="fill:none;stroke:url(#SVGID_00000122692484398332016650000003061988122192751510_);stroke-width:0.5;stroke-miterlimit:10;" d="
		M452.82,510.01c-54.69-9.38-64.23-20.9-76.12-57.96c-14.34-44.68-55.56-77.45-104.93-77.45C211.14,374.6,162,423.75,162,484.37
		c0,43.94,25.99,81.48,63.11,99.38c35.61,17.18,45.25,28.07,47.34,85.05l0.01-0.01c0.08,2.2,0.2,4.39,0.37,6.57
		c4.32,57.18-7.1,67.76-33.75,79.92l0.01,0.01c-27.16,12.42-46.05,39.81-46.05,71.63c0,43.49,35.25,78.74,78.74,78.74
		c33.22,0,61.62-20.59,73.18-49.69l0,0c10.83-27.29,20.84-39.08,78.53-37.72c0.03,0,0.07,0,0.1,0c0.06,0,0.12,0,0.18,0l0,0
		c1.25,0.03,2.5,0.05,3.76,0.05c85.7,0,155.18-69.48,155.18-155.18C582.7,586.04,526.4,522.63,452.82,510.01z"/>
	
		<linearGradient id="SVGID_00000009560508847683343210000006454683337451009701_" gradientUnits="userSpaceOnUse" x1="152.838" y1="249.5258" x2="462.8705" y2="559.5585" gradientTransform="matrix(1 0 0 -1 0 1057.8899)">
		<stop  offset="0" style="stop-color:#FF4B4B"/>
		<stop  offset="1" style="stop-color:#FF744F"/>
	</linearGradient>
	
		<path style="fill:none;stroke:url(#SVGID_00000009560508847683343210000006454683337451009701_);stroke-width:0.5;stroke-miterlimit:10;" d="
		M446.76,521.42c-52.11-8.94-61.19-19.91-72.52-55.22c-13.66-42.57-52.93-73.79-99.97-73.79c-57.76,0-104.59,46.82-104.59,104.59
		c0,41.86,24.77,77.63,60.13,94.69c33.92,16.36,43.11,26.74,45.1,81.03l0.01-0.01c0.08,2.1,0.19,4.18,0.35,6.26
		c4.12,54.47-6.77,64.55-32.15,76.14l0.01,0.01c-25.88,11.83-43.87,37.93-43.87,68.24c0,41.43,33.59,75.02,75.02,75.02
		c31.65,0,58.71-19.61,69.72-47.34l0,0c10.32-26,19.85-37.23,74.82-35.94c0.03,0,0.06,0,0.09,0c0.06,0,0.11,0,0.17,0l0,0
		c1.19,0.03,2.38,0.05,3.58,0.05c81.65,0,147.84-66.19,147.84-147.84C570.5,593.86,516.86,533.44,446.76,521.42z"/>
	
		<linearGradient id="SVGID_00000171710276936420456660000010165576027250295482_" gradientUnits="userSpaceOnUse" x1="161.3442" y1="252.3246" x2="456.0214" y2="547.0018" gradientTransform="matrix(1 0 0 -1 0 1057.8899)">
		<stop  offset="0" style="stop-color:#FF4B4B"/>
		<stop  offset="1" style="stop-color:#FF744F"/>
	</linearGradient>
	
		<path style="fill:none;stroke:url(#SVGID_00000171710276936420456660000010165576027250295482_);stroke-width:0.5;stroke-miterlimit:10;" d="
		M440.7,532.84c-49.52-8.49-58.15-18.92-68.92-52.48c-12.99-40.45-50.31-70.12-95.01-70.12c-54.89,0-99.4,44.5-99.4,99.4
		c0,39.79,23.54,73.77,57.14,89.99c32.24,15.55,40.97,25.41,42.87,77.01l0.01-0.01c0.07,1.99,0.18,3.98,0.33,5.95
		c3.91,51.77-6.43,61.35-30.56,72.36l0.01,0.01c-24.6,11.24-41.7,36.05-41.7,64.86c0,39.37,31.92,71.29,71.29,71.29
		c30.08,0,55.79-18.64,66.26-44.99l0,0c9.81-24.71,18.87-35.38,71.11-34.15c0.03,0,0.06,0,0.09,0c0.06,0,0.11,0,0.16,0l0,0
		c1.13,0.03,2.27,0.04,3.4,0.04c77.6,0,140.51-62.91,140.51-140.51C558.3,601.68,507.32,544.26,440.7,532.84z"/>
	
		<linearGradient id="SVGID_00000083085348137023834480000007785071456485322905_" gradientUnits="userSpaceOnUse" x1="169.8658" y1="255.1506" x2="449.169" y2="534.4538" gradientTransform="matrix(1 0 0 -1 0 1057.8899)">
		<stop  offset="0" style="stop-color:#FF4B4B"/>
		<stop  offset="1" style="stop-color:#FF744F"/>
	</linearGradient>
	
		<path style="fill:none;stroke:url(#SVGID_00000083085348137023834480000007785071456485322905_);stroke-width:0.5;stroke-miterlimit:10;" d="
		M434.64,544.25c-46.94-8.05-55.12-17.94-65.32-49.74c-12.31-38.34-47.68-66.46-90.05-66.46c-52.03,0-94.21,42.18-94.21,94.21
		c0,37.71,22.31,69.92,54.16,85.29c30.56,14.74,38.83,24.09,40.63,72.99l0.01-0.01c0.07,1.89,0.17,3.77,0.31,5.64
		c3.71,49.07-6.1,58.15-28.96,68.58l0.01,0.01c-23.31,10.66-39.52,34.16-39.52,61.47c0,37.32,30.25,67.57,67.57,67.57
		c28.51,0,52.88-17.67,62.8-42.65l0,0c9.3-23.42,17.88-33.53,67.39-32.37c0.03,0,0.06,0,0.08,0c0.05,0,0.1,0,0.16,0l0,0
		c1.07,0.03,2.15,0.04,3.23,0.04c73.55,0,133.17-59.62,133.17-133.17C546.1,609.5,497.78,555.08,434.64,544.25z"/>
	
		<linearGradient id="SVGID_00000034073753830143194160000013383963444795545216_" gradientUnits="userSpaceOnUse" x1="178.3851" y1="257.9863" x2="442.3159" y2="521.9171" gradientTransform="matrix(1 0 0 -1 0 1057.8899)">
		<stop  offset="0" style="stop-color:#FF4B4B"/>
		<stop  offset="1" style="stop-color:#FF744F"/>
	</linearGradient>
	
		<path style="fill:none;stroke:url(#SVGID_00000034073753830143194160000013383963444795545216_);stroke-width:0.5;stroke-miterlimit:10;" d="
		M428.58,555.66c-44.35-7.6-52.08-16.95-61.73-47c-11.63-36.23-45.05-62.8-85.09-62.8c-49.16,0-89.02,39.85-89.02,89.02
		c0,35.63,21.08,66.07,51.18,80.59c28.87,13.93,36.69,22.76,38.39,68.97l0.01-0.01c0.06,1.78,0.16,3.56,0.3,5.33
		c3.5,46.36-5.76,54.94-27.37,64.8h0.01c-22.03,10.07-37.34,32.28-37.34,58.08c0,35.26,28.59,63.85,63.85,63.85
		c26.94,0,49.97-16.69,59.34-40.3l0,0c8.78-22.13,16.9-31.69,63.68-30.59c0.03,0,0.05,0,0.08,0c0.05,0,0.1,0,0.15,0l0,0
		c1.01,0.02,2.03,0.04,3.05,0.04c69.5,0,125.83-56.34,125.83-125.83C533.9,617.31,488.25,565.89,428.58,555.66z"/>
	
		<linearGradient id="SVGID_00000178902057703717494970000002809840770668414877_" gradientUnits="userSpaceOnUse" x1="186.8916" y1="260.787" x2="435.4655" y2="509.3609" gradientTransform="matrix(1 0 0 -1 0 1057.8899)">
		<stop  offset="0" style="stop-color:#FF4B4B"/>
		<stop  offset="1" style="stop-color:#FF744F"/>
	</linearGradient>
	
		<path style="fill:none;stroke:url(#SVGID_00000178902057703717494970000002809840770668414877_);stroke-width:0.5;stroke-miterlimit:10;" d="
		M422.52,567.08c-41.76-7.16-49.04-15.96-58.13-44.26c-10.95-34.12-42.43-59.14-80.13-59.14c-46.3,0-83.83,37.53-83.83,83.83
		c0,33.55,19.85,62.22,48.19,75.89c27.19,13.12,34.55,21.43,36.15,64.95l0.01-0.01c0.06,1.68,0.15,3.35,0.28,5.02
		c3.3,43.66-5.42,51.74-25.77,61.02l0,0c-20.74,9.48-35.16,30.4-35.16,54.7c0,33.21,26.92,60.13,60.13,60.13
		c25.37,0,47.05-15.72,55.88-37.95l0,0c8.27-20.84,15.91-29.84,59.97-28.8c0.02,0,0.05,0,0.07,0c0.05,0,0.09,0,0.14,0l0,0
		c0.95,0.02,1.91,0.04,2.87,0.04c65.44,0,118.5-53.05,118.5-118.5C521.7,625.13,478.71,576.71,422.52,567.08z"/>
	
		<linearGradient id="SVGID_00000039101014039929736460000004744574305299436707_" gradientUnits="userSpaceOnUse" x1="195.3995" y1="263.6244" x2="428.6001" y2="496.8249" gradientTransform="matrix(1 0 0 -1 0 1057.8899)">
		<stop  offset="0" style="stop-color:#FF4B4B"/>
		<stop  offset="1" style="stop-color:#FF744F"/>
	</linearGradient>
	
		<path style="fill:none;stroke:url(#SVGID_00000039101014039929736460000004744574305299436707_);stroke-width:0.5;stroke-miterlimit:10;" d="
		M416.46,578.49c-39.18-6.72-46.01-14.97-54.53-41.52c-10.27-32-39.8-55.48-75.17-55.48c-43.43,0-78.64,35.21-78.64,78.64
		c0,31.48,18.62,58.37,45.21,71.19c25.51,12.3,32.42,20.1,33.91,60.92l0.01-0.01c0.06,1.58,0.14,3.15,0.26,4.7
		c3.1,40.96-5.09,48.54-24.18,57.25l0,0c-19.46,8.9-32.99,28.52-32.99,51.31c0,31.15,25.25,56.4,56.4,56.4
		c23.8,0,44.14-14.75,52.42-35.6l0,0c7.76-19.55,14.93-27.99,56.26-27.02c0.02,0,0.05,0,0.07,0c0.04,0,0.09,0,0.13,0l0,0
		c0.9,0.02,1.79,0.03,2.69,0.03c61.39,0,111.16-49.77,111.16-111.16C509.5,632.95,469.17,587.53,416.46,578.49z"/>
	
		<linearGradient id="SVGID_00000169533126022808297710000003186613890666128548_" gradientUnits="userSpaceOnUse" x1="203.9255" y1="266.4496" x2="421.7518" y2="484.276" gradientTransform="matrix(1 0 0 -1 0 1057.8899)">
		<stop  offset="0" style="stop-color:#FF4B4B"/>
		<stop  offset="1" style="stop-color:#FF744F"/>
	</linearGradient>
	
		<path style="fill:none;stroke:url(#SVGID_00000169533126022808297710000003186613890666128548_);stroke-width:0.5;stroke-miterlimit:10;" d="
		M410.4,589.9c-36.59-6.27-42.97-13.98-50.93-38.78c-9.6-29.89-37.17-51.82-70.21-51.82c-40.56,0-73.45,32.88-73.45,73.45
		c0,29.4,17.39,54.51,42.23,66.49c23.82,11.49,30.28,18.78,31.67,56.9l0.01-0.01c0.05,1.47,0.13,2.94,0.24,4.39
		c2.89,38.26-4.75,45.33-22.58,53.47l0,0c-18.17,8.31-30.81,26.63-30.81,47.92c0,29.1,23.59,52.68,52.68,52.68
		c22.23,0,41.23-13.77,48.96-33.25l0,0c7.25-18.26,13.94-26.15,52.54-25.24c0.02,0,0.04,0,0.07,0c0.04,0,0.08,0,0.12,0l0,0
		c0.84,0.02,1.67,0.03,2.52,0.03c57.34,0,103.82-46.48,103.82-103.82C497.3,640.77,459.63,598.34,410.4,589.9z"/>
	
		<linearGradient id="SVGID_00000088110198217289175100000015508777633436522672_" gradientUnits="userSpaceOnUse" x1="212.4538" y1="269.2524" x2="414.9122" y2="471.7107" gradientTransform="matrix(1 0 0 -1 0 1057.8899)">
		<stop  offset="0" style="stop-color:#FF4B4B"/>
		<stop  offset="1" style="stop-color:#FF744F"/>
	</linearGradient>
	
		<path style="fill:none;stroke:url(#SVGID_00000088110198217289175100000015508777633436522672_);stroke-width:0.5;stroke-miterlimit:10;" d="
		M404.34,601.32c-34.01-5.83-39.93-12.99-47.33-36.04c-8.92-27.78-34.55-48.16-65.25-48.16c-37.7,0-68.26,30.56-68.26,68.26
		c0,27.32,16.16,50.66,39.24,61.8c22.14,10.68,28.14,17.45,29.44,52.88l0.01-0.01c0.05,1.37,0.13,2.73,0.23,4.08
		c2.69,35.55-4.42,42.13-20.98,49.69l0,0c-16.89,7.72-28.63,24.75-28.63,44.54c0,27.04,21.92,48.96,48.96,48.96
		c20.66,0,38.31-12.8,45.5-30.9l0,0c6.74-16.97,12.96-24.3,48.83-23.45c0.02,0,0.04,0,0.06,0c0.04,0,0.07,0,0.11,0l0,0
		c0.78,0.02,1.56,0.03,2.34,0.03c53.29,0,96.49-43.2,96.49-96.49C485.1,648.59,450.09,609.16,404.34,601.32z"/>
	
		<linearGradient id="SVGID_00000153664376162089594730000015564496125799859640_" gradientUnits="userSpaceOnUse" x1="220.9732" y1="272.0544" x2="408.0719" y2="459.1529" gradientTransform="matrix(1 0 0 -1 0 1057.8899)">
		<stop  offset="0" style="stop-color:#FF4B4B"/>
		<stop  offset="1" style="stop-color:#FF744F"/>
	</linearGradient>
	
		<path style="fill:none;stroke:url(#SVGID_00000153664376162089594730000015564496125799859640_);stroke-width:0.5;stroke-miterlimit:10;" d="
		M398.29,612.73c-31.42-5.39-36.9-12.01-43.73-33.3c-8.24-25.67-31.92-44.49-60.29-44.49c-34.83,0-63.07,28.24-63.07,63.07
		c0,25.24,14.93,46.81,36.26,57.1c20.46,9.87,26,16.12,27.2,48.86h0.01c0.05,1.26,0.12,2.52,0.21,3.77
		c2.48,32.85-4.08,38.93-19.39,45.91l0,0c-15.61,7.13-26.46,22.87-26.46,41.15c0,24.98,20.25,45.24,45.24,45.24
		c19.09,0,35.4-11.83,42.04-28.55l0,0c6.22-15.68,11.97-22.45,45.12-21.67c0.02,0,0.04,0,0.06,0c0.04,0,0.07,0,0.1,0l0,0
		c0.72,0.02,1.44,0.03,2.16,0.03c49.24,0,89.15-39.91,89.15-89.15C472.9,656.41,440.56,619.98,398.29,612.73z"/>
	
		<linearGradient id="SVGID_00000150789579493575351030000005710364079513375394_" gradientUnits="userSpaceOnUse" x1="229.4935" y1="274.8789" x2="401.2211" y2="446.6065" gradientTransform="matrix(1 0 0 -1 0 1057.8899)">
		<stop  offset="0" style="stop-color:#FF4B4B"/>
		<stop  offset="1" style="stop-color:#FF744F"/>
	</linearGradient>
	
		<path style="fill:none;stroke:url(#SVGID_00000150789579493575351030000005710364079513375394_);stroke-width:0.5;stroke-miterlimit:10;" d="
		M392.23,624.14c-28.84-4.94-33.86-11.02-40.13-30.56c-7.56-23.56-29.29-40.83-55.32-40.83c-31.96,0-57.88,25.91-57.88,57.88
		c0,23.17,13.7,42.96,33.27,52.4c18.77,9.06,23.86,14.8,24.96,44.84h0.01c0.04,1.16,0.11,2.32,0.19,3.46
		c2.28,30.15-3.74,35.72-17.79,42.13l0,0c-14.32,6.55-24.28,20.99-24.28,37.77c0,22.93,18.59,41.51,41.51,41.51
		c17.52,0,32.49-10.85,38.58-26.2l0,0c5.71-14.39,10.99-20.6,41.4-19.89c0.02,0,0.03,0,0.05,0c0.03,0,0.06,0,0.1,0l0,0
		c0.66,0.02,1.32,0.03,1.98,0.03c45.19,0,81.82-36.63,81.82-81.82C460.7,664.23,431.02,630.79,392.23,624.14z"/>
	
		<linearGradient id="SVGID_00000140693162303717846560000004715155954377590165_" gradientUnits="userSpaceOnUse" x1="238.0076" y1="277.6861" x2="394.3716" y2="434.0502" gradientTransform="matrix(1 0 0 -1 0 1057.8899)">
		<stop  offset="0" style="stop-color:#FF4B4B"/>
		<stop  offset="1" style="stop-color:#FF744F"/>
	</linearGradient>
	
		<path style="fill:none;stroke:url(#SVGID_00000140693162303717846560000004715155954377590165_);stroke-width:0.5;stroke-miterlimit:10;" d="
		M386.17,635.56c-26.25-4.5-30.83-10.03-36.53-27.82c-6.88-21.44-26.67-37.17-50.36-37.17c-29.1,0-52.69,23.59-52.69,52.69
		c0,21.09,12.48,39.11,30.29,47.7c17.09,8.24,21.72,13.47,22.72,40.82l0,0c0.04,1.06,0.1,2.11,0.18,3.15
		c2.07,27.44-3.41,32.52-16.2,38.36l0,0c-13.04,5.96-22.1,19.11-22.1,34.38c0,20.87,16.92,37.79,37.79,37.79
		c15.95,0,29.58-9.88,35.12-23.85l0,0c5.2-13.1,10-18.76,37.69-18.1c0.02,0,0.03,0,0.05,0c0.03,0,0.06,0,0.09,0l0,0
		c0.6,0.01,1.2,0.02,1.8,0.02c41.13,0,74.48-33.35,74.48-74.48C448.5,672.05,421.48,641.61,386.17,635.56z"/>
	
		<linearGradient id="SVGID_00000054973557794950763380000010133478189424223145_" gradientUnits="userSpaceOnUse" x1="246.5226" y1="280.5087" x2="387.5184" y2="421.5045" gradientTransform="matrix(1 0 0 -1 0 1057.8899)">
		<stop  offset="0" style="stop-color:#FF4B4B"/>
		<stop  offset="1" style="stop-color:#FF744F"/>
	</linearGradient>
	
		<path style="fill:none;stroke:url(#SVGID_00000054973557794950763380000010133478189424223145_);stroke-width:0.5;stroke-miterlimit:10;" d="
		M380.11,646.97c-23.66-4.06-27.79-9.04-32.94-25.08c-6.21-19.33-24.04-33.51-45.4-33.51c-26.23,0-47.5,21.27-47.5,47.5
		c0,19.01,11.25,35.25,27.31,43c15.41,7.43,19.58,12.14,20.48,36.8l0,0c0.03,0.95,0.09,1.9,0.16,2.84
		c1.87,24.74-3.07,29.32-14.6,34.58l0,0c-11.75,5.37-19.92,17.22-19.92,30.99c0,18.82,15.25,34.07,34.07,34.07
		c14.38,0,26.66-8.91,31.66-21.5l0,0c4.69-11.81,9.02-16.91,33.98-16.32c0.01,0,0.03,0,0.04,0c0.03,0,0.05,0,0.08,0l0,0
		c0.54,0.01,1.08,0.02,1.63,0.02c37.08,0,67.14-30.06,67.14-67.14C436.3,679.86,411.94,652.43,380.11,646.97z"/>
	
		<linearGradient id="SVGID_00000165939460131334691710000015845639382350060208_" gradientUnits="userSpaceOnUse" x1="255.032" y1="283.3243" x2="380.6662" y2="408.9586" gradientTransform="matrix(1 0 0 -1 0 1057.8899)">
		<stop  offset="0" style="stop-color:#FF4B4B"/>
		<stop  offset="1" style="stop-color:#FF744F"/>
	</linearGradient>
	
		<path style="fill:none;stroke:url(#SVGID_00000165939460131334691710000015845639382350060208_);stroke-width:0.5;stroke-miterlimit:10;" d="
		M374.05,658.38c-21.08-3.61-24.75-8.05-29.34-22.34c-5.53-17.22-21.41-29.85-40.44-29.85c-23.37,0-42.31,18.94-42.31,42.31
		c0,16.93,10.02,31.4,24.32,38.3c13.72,6.62,17.44,10.82,18.25,32.78l0,0c0.03,0.85,0.08,1.69,0.14,2.53
		c1.67,22.04-2.74,26.11-13.01,30.8l0,0c-10.47,4.79-17.75,15.34-17.75,27.61c0,16.76,13.59,30.35,30.35,30.35
		c12.8,0,23.75-7.93,28.2-19.15l0,0c4.17-10.52,8.03-15.06,30.27-14.54c0.01,0,0.03,0,0.04,0c0.02,0,0.05,0,0.07,0l0,0
		c0.48,0.01,0.96,0.02,1.45,0.02c33.03,0,59.81-26.78,59.81-59.81C424.1,687.68,402.4,663.24,374.05,658.38z"/>
	
		<linearGradient id="SVGID_00000140001887766544324990000010285248837105980589_" gradientUnits="userSpaceOnUse" x1="263.5532" y1="286.1581" x2="373.81" y2="396.4149" gradientTransform="matrix(1 0 0 -1 0 1057.8899)">
		<stop  offset="0" style="stop-color:#FF4B4B"/>
		<stop  offset="1" style="stop-color:#FF744F"/>
	</linearGradient>
	
		<path style="fill:none;stroke:url(#SVGID_00000140001887766544324990000010285248837105980589_);stroke-width:0.5;stroke-miterlimit:10;" d="
		M367.99,669.79c-18.49-3.17-21.72-7.07-25.74-19.6C337.4,635.08,323.46,624,306.77,624c-20.5,0-37.12,16.62-37.12,37.12
		c0,14.86,8.79,27.55,21.34,33.6c12.04,5.81,15.3,9.49,16.01,28.76l0,0c0.03,0.74,0.07,1.48,0.12,2.22
		c1.46,19.33-2.4,22.91-11.41,27.02l0,0c-9.18,4.2-15.57,13.46-15.57,24.22c0,14.7,11.92,26.62,26.62,26.62
		c11.23,0,20.84-6.96,24.74-16.8l0,0c3.66-9.23,7.05-13.21,26.55-12.75c0.01,0,0.02,0,0.03,0c0.02,0,0.04,0,0.06,0l0,0
		c0.42,0.01,0.85,0.02,1.27,0.02c28.98,0,52.47-23.49,52.47-52.47C411.9,695.5,392.87,674.06,367.99,669.79z"/>
	
		<linearGradient id="SVGID_00000032631022065517912520000008931191221261205134_" gradientUnits="userSpaceOnUse" x1="272.0713" y1="288.9675" x2="366.9624" y2="383.8585" gradientTransform="matrix(1 0 0 -1 0 1057.8899)">
		<stop  offset="0" style="stop-color:#FF4B4B"/>
		<stop  offset="1" style="stop-color:#FF744F"/>
	</linearGradient>
	
		<path style="fill:none;stroke:url(#SVGID_00000032631022065517912520000008931191221261205134_);stroke-width:0.5;stroke-miterlimit:10;" d="
		M361.93,681.21c-15.91-2.73-18.68-6.08-22.14-16.86c-4.17-12.99-16.16-22.53-30.52-22.53c-17.63,0-31.93,14.29-31.93,31.93
		c0,12.78,7.56,23.7,18.36,28.91c10.36,5,13.16,8.16,13.77,24.74l0,0c0.02,0.64,0.06,1.28,0.11,1.91
		c1.26,16.63-2.07,19.71-9.82,23.24l0,0c-7.9,3.61-13.39,11.58-13.39,20.83c0,12.65,10.25,22.9,22.9,22.9
		c9.66,0,17.92-5.99,21.28-14.45l0,0c3.15-7.94,6.06-11.37,22.84-10.97c0.01,0,0.02,0,0.03,0c0.02,0,0.03,0,0.05,0l0,0
		c0.36,0.01,0.73,0.01,1.09,0.01c24.93,0,45.13-20.21,45.13-45.13C399.7,703.32,383.33,684.88,361.93,681.21z"/>
	
		<linearGradient id="SVGID_00000062902095311202179340000012633948329935049857_" gradientUnits="userSpaceOnUse" x1="280.5841" y1="291.7696" x2="360.1187" y2="371.3041" gradientTransform="matrix(1 0 0 -1 0 1057.8899)">
		<stop  offset="0" style="stop-color:#FF4B4B"/>
		<stop  offset="1" style="stop-color:#FF744F"/>
	</linearGradient>
	
		<path style="fill:none;stroke:url(#SVGID_00000062902095311202179340000012633948329935049857_);stroke-width:0.5;stroke-miterlimit:10;" d="
		M355.87,692.62c-13.32-2.28-15.64-5.09-18.54-14.12c-3.49-10.88-13.53-18.86-25.56-18.86c-14.77,0-26.74,11.97-26.74,26.74
		c0,10.7,6.33,19.85,15.37,24.21c8.67,4.18,11.02,6.84,11.53,20.72l0,0c0.02,0.54,0.05,1.07,0.09,1.6
		c1.05,13.93-1.73,16.5-8.22,19.46l0,0c-6.62,3.02-11.22,9.7-11.22,17.45c0,10.59,8.59,19.18,19.18,19.18
		c8.09,0,15.01-5.01,17.83-12.1l0,0c2.64-6.65,5.08-9.52,19.13-9.19c0.01,0,0.02,0,0.02,0c0.01,0,0.03,0,0.04,0l0,0
		c0.3,0.01,0.61,0.01,0.92,0.01c20.87,0,37.8-16.92,37.8-37.8C387.5,711.14,373.79,695.69,355.87,692.62z"/>
	
		<linearGradient id="SVGID_00000116953017135223648810000010057116576124665754_" gradientUnits="userSpaceOnUse" x1="289.1133" y1="294.5881" x2="353.2733" y2="358.7481" gradientTransform="matrix(1 0 0 -1 0 1057.8899)">
		<stop  offset="0" style="stop-color:#FF4B4B"/>
		<stop  offset="1" style="stop-color:#FF744F"/>
	</linearGradient>
	
		<path style="fill:none;stroke:url(#SVGID_00000116953017135223648810000010057116576124665754_);stroke-width:0.5;stroke-miterlimit:10;" d="
		M349.81,704.03c-10.74-1.84-12.61-4.1-14.94-11.38c-2.82-8.77-10.91-15.2-20.6-15.2c-11.9,0-21.55,9.65-21.55,21.55
		c0,8.62,5.1,15.99,12.39,19.51c6.99,3.37,8.88,5.51,9.29,16.69l0,0c0.02,0.43,0.04,0.86,0.07,1.29c0.85,11.22-1.39,13.3-6.62,15.69
		l0,0c-5.33,2.44-9.04,7.81-9.04,14.06c0,8.54,6.92,15.46,15.46,15.46c6.52,0,12.1-4.04,14.37-9.75l0,0
		c2.13-5.36,4.09-7.67,15.42-7.4c0.01,0,0.01,0,0.02,0c0.01,0,0.02,0,0.04,0l0,0c0.25,0.01,0.49,0.01,0.74,0.01
		c16.82,0,30.46-13.64,30.46-30.46C375.3,718.96,364.25,706.51,349.81,704.03z"/>
	
		<linearGradient id="SVGID_00000101100593054797075530000001522042994361024955_" gradientUnits="userSpaceOnUse" x1="297.616" y1="297.4103" x2="346.4098" y2="346.2041" gradientTransform="matrix(1 0 0 -1 0 1057.8899)">
		<stop  offset="0" style="stop-color:#FF4B4B"/>
		<stop  offset="1" style="stop-color:#FF744F"/>
	</linearGradient>
	
		<path style="fill:none;stroke:url(#SVGID_00000101100593054797075530000001522042994361024955_);stroke-width:0.5;stroke-miterlimit:10;" d="
		M343.75,715.45c-8.15-1.4-9.57-3.11-11.34-8.64c-2.14-6.66-8.28-11.54-15.64-11.54c-9.03,0-16.36,7.32-16.36,16.36
		c0,6.55,3.87,12.14,9.4,14.81c5.31,2.56,6.74,4.18,7.05,12.67l0,0c0.01,0.33,0.03,0.65,0.05,0.98c0.64,8.52-1.06,10.1-5.03,11.91
		l0,0c-4.05,1.85-6.86,5.93-6.86,10.67c0,6.48,5.25,11.73,11.73,11.73c4.95,0,9.18-3.07,10.91-7.4l0,0
		c1.61-4.07,3.11-5.82,11.7-5.62h0.01c0.01,0,0.02,0,0.03,0l0,0c0.19,0,0.37,0.01,0.56,0.01c12.77,0,23.12-10.35,23.12-23.12
		C363.1,726.78,354.71,717.33,343.75,715.45z"/>
	
		<linearGradient id="SVGID_00000013185111608574646900000005478228794586848397_" gradientUnits="userSpaceOnUse" x1="306.1514" y1="300.24" x2="339.5683" y2="333.6569" gradientTransform="matrix(1 0 0 -1 0 1057.8899)">
		<stop  offset="0" style="stop-color:#FF4B4B"/>
		<stop  offset="1" style="stop-color:#FF744F"/>
	</linearGradient>
	
		<path style="fill:none;stroke:url(#SVGID_00000013185111608574646900000005478228794586848397_);stroke-width:0.5;stroke-miterlimit:10;" d="
		M337.69,726.86c-5.56-0.95-6.53-2.13-7.74-5.9c-1.46-4.55-5.65-7.88-10.68-7.88c-6.17,0-11.17,5-11.17,11.17
		c0,4.47,2.64,8.29,6.42,10.11c3.62,1.75,4.6,2.86,4.82,8.65l0,0c0.01,0.22,0.02,0.45,0.04,0.67c0.44,5.82-0.72,6.89-3.43,8.13l0,0
		c-2.76,1.26-4.68,4.05-4.68,7.29c0,4.42,3.59,8.01,8.01,8.01c3.38,0,6.27-2.09,7.45-5.06l0,0c1.1-2.78,2.12-3.98,7.99-3.84h0.01
		c0.01,0,0.01,0,0.02,0l0,0c0.13,0,0.25,0,0.38,0c8.72,0,15.79-7.07,15.79-15.79C350.9,734.6,345.18,728.14,337.69,726.86z"/>
	
		<linearGradient id="SVGID_00000026124316044419376990000009311001746362958265_" gradientUnits="userSpaceOnUse" x1="314.6638" y1="303.0549" x2="332.7229" y2="321.114" gradientTransform="matrix(1 0 0 -1 0 1057.8899)">
		<stop  offset="0" style="stop-color:#FF4B4B"/>
		<stop  offset="1" style="stop-color:#FF744F"/>
	</linearGradient>
	
		<path style="fill:none;stroke:url(#SVGID_00000026124316044419376990000009311001746362958265_);stroke-width:0.5;stroke-miterlimit:10;" d="
		M331.63,738.27c-2.97-0.53-3.47-1.15-4.15-3.16c-0.75-2.44-3.03-4.22-5.71-4.22c-3.3,0-5.98,2.68-5.98,5.98
		c0,2.39,1.41,4.46,3.44,5.41c1.93,0.95,2.46,1.53,2.58,4.63l0,0c0,0.12,0.01,0.24,0.02,0.36c0.23,3.11-0.39,3.69-1.84,4.35l0,0
		c-1.48,0.68-2.51,2.17-2.51,3.9c0,2.37,1.92,4.29,4.29,4.29c1.81,0,3.36-1.12,3.99-2.71l0,0c0.59-1.49,1.13-2.13,4.28-2.05
		c0,0,0,0,0.01,0h0.01l0,0c0.07,0,0.14,0,0.2,0c4.67,0,8.45-3.78,8.45-8.45C338.7,742.41,335.64,738.93,331.63,738.27z"/>
</g>
</svg>
