<?xml version="1.0" encoding="utf-8"?>
<!-- Generator: Adobe Illustrator 28.1.0, SVG Export Plug-In . SVG Version: 6.00 Build 0)  -->
<svg version="1.1" id="Ebene_1" xmlns="http://www.w3.org/2000/svg" xmlns:xlink="http://www.w3.org/1999/xlink" x="0px" y="0px"
	 viewBox="0 0 839.39 1059.3" style="enable-background:new 0 0 839.39 1059.3;" xml:space="preserve">
<style type="text/css">
	.st0{fill:none;stroke:url(#SVGID_1_);stroke-width:0.5;stroke-miterlimit:10;}
	.st1{fill:none;stroke:url(#SVGID_00000172416257782038441000000011630072818694208152_);stroke-width:0.5;stroke-miterlimit:10;}
	.st2{fill:none;stroke:url(#SVGID_00000106109836418274650000000015544331361612732306_);stroke-width:0.5;stroke-miterlimit:10;}
	.st3{fill:none;stroke:url(#SVGID_00000004513400426838200780000015368803632843021961_);stroke-width:0.5;stroke-miterlimit:10;}
	.st4{fill:none;stroke:url(#SVGID_00000182502277381576069130000006637420190160969358_);stroke-width:0.5;stroke-miterlimit:10;}
	.st5{fill:none;stroke:url(#SVGID_00000089546001777560273360000016615071865135403180_);stroke-width:0.5;stroke-miterlimit:10;}
	.st6{fill:none;stroke:url(#SVGID_00000106842513601262926130000000784163389695804032_);stroke-width:0.5;stroke-miterlimit:10;}
	.st7{fill:none;stroke:url(#SVGID_00000026872459512834154950000007543045980316803761_);stroke-width:0.5;stroke-miterlimit:10;}
	.st8{fill:none;stroke:url(#SVGID_00000065076663724582986610000017233101890792547476_);stroke-width:0.5;stroke-miterlimit:10;}
	.st9{fill:none;stroke:url(#SVGID_00000163752843087613193430000011153880802794040202_);stroke-width:0.5;stroke-miterlimit:10;}
	.st10{fill:none;stroke:url(#SVGID_00000023961657853315644460000010213740263621491364_);stroke-width:0.5;stroke-miterlimit:10;}
	.st11{fill:none;stroke:url(#SVGID_00000140708081209879381210000014330480395218731426_);stroke-width:0.5;stroke-miterlimit:10;}
	.st12{fill:none;stroke:url(#SVGID_00000160165946972950380710000016462348710777401497_);stroke-width:0.5;stroke-miterlimit:10;}
	.st13{fill:none;stroke:url(#SVGID_00000005947618177672478490000004923894285173586313_);stroke-width:0.5;stroke-miterlimit:10;}
	.st14{fill:none;stroke:url(#SVGID_00000121971824178406282370000007170294487306216883_);stroke-width:0.5;stroke-miterlimit:10;}
	.st15{fill:none;stroke:url(#SVGID_00000018952164430786889180000012868599595476238739_);stroke-width:0.5;stroke-miterlimit:10;}
	.st16{fill:none;stroke:url(#SVGID_00000058583610207587291410000009645963038051890619_);stroke-width:0.5;stroke-miterlimit:10;}
	.st17{fill:none;stroke:url(#SVGID_00000096029877514830542870000014498834057335531138_);stroke-width:0.5;stroke-miterlimit:10;}
	.st18{fill:none;stroke:url(#SVGID_00000165206936536061547900000008825434021229232538_);stroke-width:0.5;stroke-miterlimit:10;}
	.st19{fill:none;stroke:url(#SVGID_00000129198215171147356560000014281716144465929608_);stroke-width:0.5;stroke-miterlimit:10;}
	.st20{fill:none;stroke:url(#SVGID_00000018238076261056531990000004617381071098964886_);stroke-width:0.5;stroke-miterlimit:10;}
	.st21{fill:none;stroke:url(#SVGID_00000059268949737178207510000000536489563589278638_);stroke-width:0.5;stroke-miterlimit:10;}
	.st22{fill:none;stroke:url(#SVGID_00000177450639953149461680000000730165763022035644_);stroke-width:0.5;stroke-miterlimit:10;}
	.st23{fill:none;stroke:url(#SVGID_00000142893435052597542260000016437833349061666749_);stroke-width:0.5;stroke-miterlimit:10;}
	.st24{fill:none;stroke:url(#SVGID_00000164512651305046977820000014415724915069699465_);stroke-width:0.5;stroke-miterlimit:10;}
	.st25{fill:none;stroke:url(#SVGID_00000145775872464397494540000002754109569313743278_);stroke-width:0.5;stroke-miterlimit:10;}
	.st26{fill:none;stroke:url(#SVGID_00000052796147532465501430000004997808258240209049_);stroke-width:0.5;stroke-miterlimit:10;}
	.st27{fill:none;stroke:url(#SVGID_00000155121111193089063020000006330397134284429245_);stroke-width:0.5;stroke-miterlimit:10;}
	.st28{fill:none;stroke:url(#SVGID_00000058579203989081233450000003907150360872339361_);stroke-width:0.5;stroke-miterlimit:10;}
	.st29{fill:none;stroke:url(#SVGID_00000114032343487810219820000010419503073671984015_);stroke-width:0.5;stroke-miterlimit:10;}
	.st30{fill:none;stroke:url(#SVGID_00000035488964360149457520000007925118174789132673_);stroke-width:0.5;stroke-miterlimit:10;}
	.st31{fill:none;stroke:url(#SVGID_00000136401003235763938760000000515992300434614192_);stroke-width:0.5;stroke-miterlimit:10;}
	.st32{fill:none;stroke:url(#SVGID_00000039831445063109347850000003953952513091460525_);stroke-width:0.5;stroke-miterlimit:10;}
	.st33{fill:none;stroke:url(#SVGID_00000079483944977843321300000005857083678618593183_);stroke-width:0.5;stroke-miterlimit:10;}
	.st34{fill:none;stroke:url(#SVGID_00000003077352623258080100000015952171403475421873_);stroke-width:0.5;stroke-miterlimit:10;}
	.st35{fill:none;stroke:url(#SVGID_00000125574026876908226160000009817445346222859165_);stroke-width:0.5;stroke-miterlimit:10;}
	.st36{fill:none;stroke:url(#SVGID_00000121987352239873535280000005544712986635423157_);stroke-width:0.5;stroke-miterlimit:10;}
	.st37{fill:none;stroke:url(#SVGID_00000122694522893961844280000011437013935271127182_);stroke-width:0.5;stroke-miterlimit:10;}
	.st38{fill:none;stroke:url(#SVGID_00000136380670967461560810000011859421873729912735_);stroke-width:0.5;stroke-miterlimit:10;}
	.st39{fill:none;stroke:url(#SVGID_00000174589248819538126380000005756937716067575946_);stroke-width:0.5;stroke-miterlimit:10;}
	.st40{fill:none;stroke:url(#SVGID_00000091009173087304430780000004779230841915914681_);stroke-width:0.5;stroke-miterlimit:10;}
	.st41{fill:none;stroke:url(#SVGID_00000105422705985810545210000018198019935678222762_);stroke-width:0.5;stroke-miterlimit:10;}
</style>
<g>
	<linearGradient id="SVGID_1_" gradientUnits="userSpaceOnUse" x1="-34.5446" y1="870.3444" x2="613.8293" y2="221.9706">
		<stop  offset="0" style="stop-color:#FF4B4B"/>
		<stop  offset="1" style="stop-color:#FF744F"/>
	</linearGradient>
	<path class="st0" d="M580.07,270.33c-108.85-19.48-127.1-41.94-151.69-115.5C400.87,65.46,317.66,0.5,219.26,0.5
		C98.44,0.5,0.5,98.44,0.5,219.26c0,87.56,51.45,163.1,125.77,198.05c70.62,34.92,90.18,55.93,94.34,169.49l0.02-0.02
		c0.16,4.39,0.39,8.75,0.73,13.09c8.32,113.97-14.15,135.03-67.26,159.26l0.01,0.01c-54.13,24.75-91.77,79.33-91.77,142.74
		c0,86.66,70.25,156.91,156.91,156.91c66.21,0,122.8-41.03,145.84-99.03l0,0c21.59-54.38,41.53-77.87,156.5-75.17
		c0.06,0,0.13,0,0.2,0c0.12,0,0.24,0,0.36,0.01l0,0c2.49,0.06,4.99,0.09,7.49,0.09c170.79,0,309.24-138.45,309.24-309.24
		C838.89,421.85,726.88,294.41,580.07,270.33z"/>
	
		<linearGradient id="SVGID_00000147915654449292501540000004319663555740465083_" gradientUnits="userSpaceOnUse" x1="-23.8368" y1="862.3144" x2="609.0054" y2="229.4722">
		<stop  offset="0" style="stop-color:#FF4B4B"/>
		<stop  offset="1" style="stop-color:#FF744F"/>
	</linearGradient>
	
		<path style="fill:none;stroke:url(#SVGID_00000147915654449292501540000004319663555740465083_);stroke-width:0.5;stroke-miterlimit:10;" d="
		M576.29,276.45c-106.42-18.25-124.97-40.67-148.12-112.77c-27.91-86.94-108.11-150.7-204.18-150.7
		c-117.97,0-213.6,95.63-213.6,213.6c0,85.5,50.58,158.54,122.8,193.38c69.28,33.42,88.05,54.61,92.12,165.49l0.02-0.02
		c0.15,4.28,0.39,8.54,0.71,12.78c8.41,111.26-13.82,131.84-65.67,155.5l0.01,0.01c-52.86,24.16-89.61,77.46-89.61,139.38
		c0,84.62,68.6,153.21,153.21,153.21c64.65,0,119.9-40.06,142.4-96.69l0,0c21.08-53.1,40.55-76.04,152.81-73.4c0.06,0,0.13,0,0.19,0
		c0.12,0,0.23,0,0.35,0.01l0,0c2.43,0.06,4.87,0.09,7.32,0.09c166.76,0,301.95-135.19,301.95-301.95
		C829.01,424.39,719.46,301,576.29,276.45z"/>
	
		<linearGradient id="SVGID_00000146471248063143554590000012284616705076847291_" gradientUnits="userSpaceOnUse" x1="-13.1291" y1="854.2843" x2="604.4376" y2="236.7177">
		<stop  offset="0" style="stop-color:#FF4B4B"/>
		<stop  offset="1" style="stop-color:#FF744F"/>
	</linearGradient>
	
		<path style="fill:none;stroke:url(#SVGID_00000146471248063143554590000012284616705076847291_);stroke-width:0.5;stroke-miterlimit:10;" d="
		M572.51,282.57c-103.85-17.81-121.95-39.68-144.54-110.05C400.73,87.68,322.47,25.46,228.71,25.46
		c-115.12,0-208.44,93.32-208.44,208.44c0,83.43,49.36,154.71,119.84,188.71c67.61,32.61,85.92,53.29,89.9,161.49l0.02-0.02
		c0.15,4.18,0.38,8.34,0.69,12.47c8.21,108.57-13.49,128.66-64.08,151.75l0.01,0.01C115.06,771.9,79.2,823.91,79.2,884.33
		c0,82.57,66.94,149.51,149.51,149.51c63.09,0,117.01-39.09,138.96-94.36l0,0c20.57-51.82,39.57-74.2,149.12-71.62
		c0.06,0,0.12,0,0.19,0c0.12,0,0.23,0,0.34,0.01l0,0c2.37,0.06,4.75,0.09,7.14,0.09c162.74,0,294.66-131.92,294.66-294.66
		C819.12,426.93,712.22,306.52,572.51,282.57z"/>
	
		<linearGradient id="SVGID_00000110447407820624134570000012107942015796490379_" gradientUnits="userSpaceOnUse" x1="-2.4213" y1="846.2543" x2="599.8698" y2="243.9632">
		<stop  offset="0" style="stop-color:#FF4B4B"/>
		<stop  offset="1" style="stop-color:#FF744F"/>
	</linearGradient>
	
		<path style="fill:none;stroke:url(#SVGID_00000110447407820624134570000012107942015796490379_);stroke-width:0.5;stroke-miterlimit:10;" d="
		M568.72,288.68c-101.28-17.37-118.93-38.7-140.96-107.32C401.2,98.62,324.88,37.94,233.44,37.94
		c-112.27,0-203.28,91.01-203.28,203.28c0,81.37,48.14,150.88,116.87,184.04c65.94,31.81,83.8,51.97,87.67,157.5l0.02-0.02
		c0.15,4.08,0.37,8.13,0.68,12.16c8,105.88-13.15,125.48-62.5,147.99l0.01,0.01c-50.3,23-85.28,73.72-85.28,132.65
		c0,80.53,65.28,145.81,145.81,145.81c61.53,0,114.11-38.13,135.52-92.02l0,0c20.06-50.54,38.59-72.36,145.43-69.85
		c0.06,0,0.12,0,0.18,0c0.11,0,0.22,0,0.34,0.01l0,0c2.31,0.06,4.63,0.09,6.96,0.09c158.71,0,287.37-128.66,287.37-287.37
		C809.24,429.47,704.98,312.04,568.72,288.68z"/>
	
		<linearGradient id="SVGID_00000176737042122866660070000005828427850437252488_" gradientUnits="userSpaceOnUse" x1="8.2865" y1="838.2242" x2="595.302" y2="251.2087">
		<stop  offset="0" style="stop-color:#FF4B4B"/>
		<stop  offset="1" style="stop-color:#FF744F"/>
	</linearGradient>
	
		<path style="fill:none;stroke:url(#SVGID_00000176737042122866660070000005828427850437252488_);stroke-width:0.5;stroke-miterlimit:10;" d="
		M564.94,294.8c-98.71-16.93-115.92-37.72-137.39-104.6C401.67,109.56,327.28,50.41,238.17,50.41
		c-109.42,0-198.13,88.7-198.13,198.13c0,79.3,46.91,147.06,113.91,179.37c64.26,31,81.67,50.65,85.45,153.5l0.02-0.02
		c0.14,3.97,0.36,7.93,0.66,11.85c7.8,103.2-12.82,122.29-60.91,144.24l0.01,0.01c-49.03,22.41-83.11,71.85-83.11,129.28
		c0,78.49,63.63,142.11,142.11,142.11c59.96,0,111.22-37.16,132.08-89.69l0,0c19.55-49.25,37.61-70.53,141.74-68.08
		c0.06,0,0.12,0,0.18,0c0.11,0,0.22,0,0.33,0.01l0,0c2.26,0.05,4.52,0.09,6.79,0.09c154.68,0,280.07-125.39,280.07-280.07
		C799.35,432.01,697.74,317.57,564.94,294.8z"/>
	
		<linearGradient id="SVGID_00000167375706713792378110000018340429920442783145_" gradientUnits="userSpaceOnUse" x1="18.9942" y1="830.1942" x2="590.7342" y2="258.4542">
		<stop  offset="0" style="stop-color:#FF4B4B"/>
		<stop  offset="1" style="stop-color:#FF744F"/>
	</linearGradient>
	
		<path style="fill:none;stroke:url(#SVGID_00000167375706713792378110000018340429920442783145_);stroke-width:0.5;stroke-miterlimit:10;" d="
		M561.16,300.91c-96.14-16.49-112.9-36.74-133.81-101.88C402.14,120.5,329.69,62.89,242.89,62.89
		c-106.57,0-192.97,86.39-192.97,192.97c0,77.24,45.69,143.23,110.94,174.7c62.59,30.19,79.54,49.34,83.22,149.5l0.02-0.01
		c0.14,3.87,0.35,7.72,0.64,11.54c7.6,100.51-12.49,119.11-59.33,140.48l0.01,0.01c-47.75,21.83-80.95,69.98-80.95,125.91
		c0,76.44,61.97,138.41,138.41,138.41c58.4,0,108.32-36.19,128.65-87.35l0,0c19.04-47.97,36.63-68.69,138.05-66.31
		c0.06,0,0.11,0,0.17,0c0.11,0,0.21,0,0.32,0.01l0,0c2.2,0.05,4.4,0.08,6.61,0.08c150.65,0,272.78-122.13,272.78-272.78
		C789.47,434.56,690.5,323.09,561.16,300.91z"/>
	
		<linearGradient id="SVGID_00000152963438963595236370000001893717299802872712_" gradientUnits="userSpaceOnUse" x1="29.702" y1="822.1641" x2="586.1664" y2="265.6997">
		<stop  offset="0" style="stop-color:#FF4B4B"/>
		<stop  offset="1" style="stop-color:#FF744F"/>
	</linearGradient>
	
		<path style="fill:none;stroke:url(#SVGID_00000152963438963595236370000001893717299802872712_);stroke-width:0.5;stroke-miterlimit:10;" d="
		M557.38,307.03c-93.57-16.05-109.88-35.76-130.23-99.15c-24.54-76.44-95.05-132.5-179.53-132.5
		c-103.72,0-187.81,84.08-187.81,187.81c0,75.17,44.47,139.4,107.98,170.03c60.92,29.39,77.42,48.02,81,145.51l0.02-0.01
		c0.14,3.76,0.34,7.51,0.63,11.24c7.39,97.82-12.15,115.92-57.74,136.72l0.01,0.01c-46.47,21.24-78.79,68.11-78.79,122.55
		c0,74.4,60.31,134.71,134.71,134.71c56.84,0,105.42-35.22,125.21-85.02l0,0c18.53-46.69,35.65-66.86,134.36-64.53
		c0.06,0,0.11,0,0.17,0c0.1,0,0.21,0,0.31,0.01l0,0c2.14,0.05,4.28,0.08,6.43,0.08c146.62,0,265.49-118.86,265.49-265.49
		C779.58,437.1,683.26,328.61,557.38,307.03z"/>
	
		<linearGradient id="SVGID_00000107568735658594602220000007719910509738570115_" gradientUnits="userSpaceOnUse" x1="40.4097" y1="814.134" x2="581.5986" y2="272.9452">
		<stop  offset="0" style="stop-color:#FF4B4B"/>
		<stop  offset="1" style="stop-color:#FF744F"/>
	</linearGradient>
	
		<path style="fill:none;stroke:url(#SVGID_00000107568735658594602220000007719910509738570115_);stroke-width:0.5;stroke-miterlimit:10;" d="
		M553.6,313.14c-91-15.6-106.86-34.77-126.65-96.43C403.08,142.37,334.5,87.85,252.35,87.85C151.47,87.85,69.7,169.62,69.7,270.5
		c0,73.11,43.25,135.57,105.01,165.36c59.24,28.58,75.29,46.7,78.77,141.51l0.02-0.01c0.13,3.66,0.34,7.31,0.61,10.93
		c7.19,95.14-11.82,112.74-56.15,132.97l0.01,0.01c-45.2,20.66-76.62,66.24-76.62,119.18c0,72.36,58.66,131.01,131.01,131.01
		c55.28,0,102.53-34.26,121.77-82.68l0,0c18.02-45.41,34.67-65.02,130.67-62.76c0.05,0,0.11,0,0.16,0c0.1,0,0.2,0,0.3,0.01l0,0
		c2.08,0.05,4.16,0.08,6.26,0.08c142.6,0,258.2-115.6,258.2-258.2C769.7,439.64,676.02,334.13,553.6,313.14z"/>
	
		<linearGradient id="SVGID_00000069392927926262912460000016217199619497187984_" gradientUnits="userSpaceOnUse" x1="51.1175" y1="806.1039" x2="577.0308" y2="280.1906">
		<stop  offset="0" style="stop-color:#FF4B4B"/>
		<stop  offset="1" style="stop-color:#FF744F"/>
	</linearGradient>
	
		<path style="fill:none;stroke:url(#SVGID_00000069392927926262912460000016217199619497187984_);stroke-width:0.5;stroke-miterlimit:10;" d="
		M549.81,319.26c-88.43-15.16-103.84-33.79-123.08-93.71c-23.19-72.24-89.83-125.22-169.66-125.22
		c-98.03,0-177.49,79.47-177.49,177.49c0,71.04,42.03,131.74,102.04,160.69c57.57,27.77,73.16,45.38,76.55,137.51l0.02-0.01
		c0.13,3.56,0.33,7.1,0.59,10.62c6.99,92.45-11.48,109.55-54.57,129.21l0.01,0.01c-43.92,20.08-74.46,64.37-74.46,115.81
		c0,70.31,57,127.31,127.31,127.31c53.72,0,99.63-33.29,118.33-80.35l0,0c17.51-44.12,33.69-63.18,126.98-60.99
		c0.05,0,0.11,0,0.16,0c0.1,0,0.19,0,0.29,0.01l0,0c2.02,0.05,4.05,0.08,6.08,0.08c138.57,0,250.9-112.33,250.9-250.9
		C759.81,442.18,668.78,339.66,549.81,319.26z"/>
	
		<linearGradient id="SVGID_00000070802705292337817700000008120921969459999926_" gradientUnits="userSpaceOnUse" x1="61.8252" y1="798.0739" x2="572.463" y2="287.4362">
		<stop  offset="0" style="stop-color:#FF4B4B"/>
		<stop  offset="1" style="stop-color:#FF744F"/>
	</linearGradient>
	
		<path style="fill:none;stroke:url(#SVGID_00000070802705292337817700000008120921969459999926_);stroke-width:0.5;stroke-miterlimit:10;" d="
		M546.03,325.37c-85.86-14.72-100.83-32.81-119.5-90.98c-22.52-70.14-87.22-121.58-164.73-121.58
		c-95.18,0-172.33,77.16-172.33,172.33c0,68.98,40.81,127.91,99.08,156.02c55.9,26.96,71.04,44.06,74.32,133.52l0.01-0.01
		c0.12,3.45,0.32,6.89,0.57,10.31c6.79,89.76-11.15,106.37-52.98,125.46l0.01,0.01c-42.64,19.49-72.29,62.5-72.29,112.45
		c0,68.27,55.34,123.61,123.61,123.61c52.16,0,96.74-32.32,114.89-78.01l0,0c17.01-42.84,32.71-61.35,123.28-59.22
		c0.05,0,0.1,0,0.15,0c0.1,0,0.19,0,0.29,0.01l0,0c1.96,0.05,3.93,0.07,5.9,0.07c134.54,0,243.61-109.07,243.61-243.61
		C749.93,444.73,661.54,345.18,546.03,325.37z"/>
	
		<linearGradient id="SVGID_00000008107501868426640640000003463502392534491833_" gradientUnits="userSpaceOnUse" x1="72.533" y1="790.0438" x2="567.8951" y2="294.6816">
		<stop  offset="0" style="stop-color:#FF4B4B"/>
		<stop  offset="1" style="stop-color:#FF744F"/>
	</linearGradient>
	
		<path style="fill:none;stroke:url(#SVGID_00000008107501868426640640000003463502392534491833_);stroke-width:0.5;stroke-miterlimit:10;" d="
		M542.25,331.49c-83.29-14.28-97.81-31.83-115.92-88.26c-21.84-68.04-84.61-117.94-159.8-117.94
		c-92.33,0-167.17,74.85-167.17,167.17c0,66.92,39.59,124.08,96.11,151.35c54.22,26.16,68.91,42.74,72.1,129.52l0.01-0.01
		c0.12,3.35,0.31,6.69,0.56,10c6.58,87.07-10.82,103.19-51.4,121.7l0.01,0.01c-41.37,18.91-70.13,60.62-70.13,109.08
		c0,66.22,53.69,119.91,119.91,119.91c50.6,0,93.84-31.35,111.45-75.68l0,0c16.5-41.56,31.73-59.51,119.59-57.44
		c0.05,0,0.1,0,0.15,0c0.09,0,0.18,0,0.28,0.01l0,0c1.9,0.05,3.81,0.07,5.73,0.07c130.51,0,236.32-105.8,236.32-236.32
		C740.04,447.27,654.3,350.7,542.25,331.49z"/>
	
		<linearGradient id="SVGID_00000127726034605192656910000009173561501077218743_" gradientUnits="userSpaceOnUse" x1="83.2407" y1="782.0138" x2="563.3273" y2="301.9272">
		<stop  offset="0" style="stop-color:#FF4B4B"/>
		<stop  offset="1" style="stop-color:#FF744F"/>
	</linearGradient>
	
		<path style="fill:none;stroke:url(#SVGID_00000127726034605192656910000009173561501077218743_);stroke-width:0.5;stroke-miterlimit:10;" d="
		M538.47,337.6c-80.72-13.84-94.79-30.85-112.34-85.54c-21.17-65.94-82-114.3-154.87-114.3c-89.48,0-162.01,72.54-162.01,162.01
		c0,64.85,38.36,120.25,93.15,146.68c52.55,25.35,66.79,41.42,69.87,125.52l0.01-0.01c0.12,3.25,0.3,6.48,0.54,9.69
		c6.38,84.39-10.48,100-49.81,117.95l0.01,0.01c-40.09,18.33-67.97,58.75-67.97,105.72c0,64.18,52.03,116.21,116.21,116.21
		c49.03,0,90.95-30.39,108.01-73.34l0,0c15.99-40.28,30.75-57.67,115.9-55.67c0.05,0,0.1,0,0.14,0c0.09,0,0.18,0,0.27,0.01l0,0
		c1.84,0.04,3.69,0.07,5.55,0.07c126.49,0,229.03-102.54,229.03-229.03C730.15,449.81,647.06,356.22,538.47,337.6z"/>
	
		<linearGradient id="SVGID_00000097467752081037157120000011284848629328010912_" gradientUnits="userSpaceOnUse" x1="93.9485" y1="773.9837" x2="558.7595" y2="309.1726">
		<stop  offset="0" style="stop-color:#FF4B4B"/>
		<stop  offset="1" style="stop-color:#FF744F"/>
	</linearGradient>
	
		<path style="fill:none;stroke:url(#SVGID_00000097467752081037157120000011284848629328010912_);stroke-width:0.5;stroke-miterlimit:10;" d="
		M534.69,343.72c-78.15-13.4-91.77-29.86-108.77-82.81c-20.49-63.84-79.39-110.66-149.94-110.66
		c-86.63,0-156.86,70.23-156.86,156.86c0,62.79,37.14,116.42,90.18,142.01c50.88,24.54,64.66,40.1,67.65,121.53l0.01-0.01
		c0.11,3.14,0.29,6.27,0.52,9.38c6.18,81.7-10.15,96.82-48.22,114.19l0.01,0.01c-38.81,17.74-65.8,56.88-65.8,102.35
		c0,62.14,50.37,112.51,112.51,112.51c47.47,0,88.05-29.42,104.57-71.01l0,0c15.48-38.99,29.78-55.84,112.21-53.9
		c0.05,0,0.09,0,0.14,0c0.09,0,0.17,0,0.26,0.01l0,0c1.79,0.04,3.58,0.07,5.37,0.07c122.46,0,221.73-99.27,221.73-221.73
		C720.27,452.35,639.82,361.74,534.69,343.72z"/>
	
		<linearGradient id="SVGID_00000093883534509999316790000014965121993911796141_" gradientUnits="userSpaceOnUse" x1="104.6562" y1="765.9537" x2="554.1917" y2="316.4182">
		<stop  offset="0" style="stop-color:#FF4B4B"/>
		<stop  offset="1" style="stop-color:#FF744F"/>
	</linearGradient>
	
		<path style="fill:none;stroke:url(#SVGID_00000093883534509999316790000014965121993911796141_);stroke-width:0.5;stroke-miterlimit:10;" d="
		M530.91,349.83c-75.58-12.96-88.75-28.88-105.19-80.09C405.9,208,348.94,162.72,280.71,162.72c-83.78,0-151.7,67.92-151.7,151.7
		c0,60.72,35.92,112.59,87.21,137.34c49.2,23.74,62.53,38.78,65.42,117.53l0.01-0.01c0.11,3.04,0.28,6.07,0.51,9.08
		c5.97,79.01-9.81,93.63-46.64,110.43l0.01,0.01C198,705.95,171.9,743.8,171.9,787.77c0,60.09,48.72,108.81,108.81,108.81
		c45.91,0,85.15-28.45,101.13-68.67l0,0c14.97-37.71,28.8-54,108.52-52.13c0.04,0,0.09,0,0.14,0c0.08,0,0.17,0,0.25,0.01l0,0
		c1.73,0.04,3.46,0.07,5.2,0.07c118.43,0,214.44-96.01,214.44-214.44C710.38,454.9,632.58,367.27,530.91,349.83z"/>
	
		<linearGradient id="SVGID_00000137823386732726794050000008414141923717846206_" gradientUnits="userSpaceOnUse" x1="115.364" y1="757.9236" x2="549.6239" y2="323.6636">
		<stop  offset="0" style="stop-color:#FF4B4B"/>
		<stop  offset="1" style="stop-color:#FF744F"/>
	</linearGradient>
	
		<path style="fill:none;stroke:url(#SVGID_00000137823386732726794050000008414141923717846206_);stroke-width:0.5;stroke-miterlimit:10;" d="
		M527.12,355.95c-73.01-12.52-85.73-27.9-101.61-77.36c-19.15-59.64-74.17-103.38-140.08-103.38
		c-80.93,0-146.54,65.61-146.54,146.54c0,58.66,34.7,108.77,84.25,132.67c47.53,22.93,60.41,37.47,63.2,113.53l0.01-0.01
		c0.11,2.94,0.27,5.86,0.49,8.77c5.77,76.33-9.48,90.45-45.05,106.68l0.01,0.01c-36.26,16.58-61.47,53.14-61.47,95.62
		c0,58.05,47.06,105.11,105.11,105.11c44.35,0,82.26-27.48,97.69-66.34l0,0c14.46-36.43,27.82-52.16,104.83-50.35
		c0.04,0,0.09,0,0.13,0c0.08,0,0.16,0,0.24,0.01l0,0c1.67,0.04,3.34,0.06,5.02,0.06c114.4,0,207.15-92.74,207.15-207.15
		C700.5,457.44,625.34,372.79,527.12,355.95z"/>
	
		<linearGradient id="SVGID_00000163777182177016933960000009049935617358726813_" gradientUnits="userSpaceOnUse" x1="126.0717" y1="749.8935" x2="545.0561" y2="330.9091">
		<stop  offset="0" style="stop-color:#FF4B4B"/>
		<stop  offset="1" style="stop-color:#FF744F"/>
	</linearGradient>
	
		<path style="fill:none;stroke:url(#SVGID_00000163777182177016933960000009049935617358726813_);stroke-width:0.5;stroke-miterlimit:10;" d="
		M523.34,362.06c-70.44-12.08-82.72-26.92-98.04-74.64c-18.47-57.54-71.55-99.74-135.14-99.74c-78.08,0-141.38,63.3-141.38,141.38
		c0,56.59,33.48,104.94,81.28,128c45.86,22.12,58.28,36.15,60.97,109.54l0.01-0.01c0.1,2.83,0.26,5.66,0.47,8.46
		c5.57,73.64-9.15,87.26-43.47,102.92l0.01,0.01c-34.99,15.99-59.31,51.27-59.31,92.25c0,56.01,45.4,101.41,101.41,101.41
		c42.79,0,79.36-26.52,94.25-64l0,0c13.95-35.15,26.84-50.33,101.14-48.58c0.04,0,0.08,0,0.13,0c0.08,0,0.15,0,0.23,0l0,0
		c1.61,0.04,3.22,0.06,4.84,0.06c110.38,0,199.86-89.48,199.86-199.86C690.61,459.98,618.1,378.31,523.34,362.06z"/>
	
		<linearGradient id="SVGID_00000128447158500465906210000011932470380451808175_" gradientUnits="userSpaceOnUse" x1="136.7795" y1="741.8635" x2="540.4883" y2="338.1546">
		<stop  offset="0" style="stop-color:#FF4B4B"/>
		<stop  offset="1" style="stop-color:#FF744F"/>
	</linearGradient>
	
		<path style="fill:none;stroke:url(#SVGID_00000128447158500465906210000011932470380451808175_);stroke-width:0.5;stroke-miterlimit:10;" d="
		M519.56,368.18c-67.87-11.64-79.7-25.93-94.46-71.92c-17.8-55.44-68.94-96.11-130.21-96.11c-75.23,0-136.22,60.99-136.22,136.22
		c0,54.53,32.26,101.11,78.32,123.33c44.18,21.31,56.15,34.83,58.75,105.54l0.01-0.01c0.1,2.73,0.25,5.45,0.45,8.15
		c5.36,70.95-8.81,84.08-41.88,99.17l0.01,0.01c-33.71,15.41-57.14,49.4-57.14,88.89c0,53.96,43.75,97.71,97.71,97.71
		c41.23,0,76.47-25.55,90.81-61.66l0,0c13.44-33.86,25.86-48.49,97.45-46.81c0.04,0,0.08,0,0.12,0c0.08,0,0.15,0,0.23,0l0,0
		c1.55,0.04,3.11,0.06,4.67,0.06c106.35,0,192.56-86.21,192.56-192.56C680.73,462.52,610.86,383.83,519.56,368.18z"/>
	
		<linearGradient id="SVGID_00000093860982473583052130000015846240968488055458_" gradientUnits="userSpaceOnUse" x1="147.4872" y1="733.8334" x2="535.9205" y2="345.4001">
		<stop  offset="0" style="stop-color:#FF4B4B"/>
		<stop  offset="1" style="stop-color:#FF744F"/>
	</linearGradient>
	
		<path style="fill:none;stroke:url(#SVGID_00000093860982473583052130000015846240968488055458_);stroke-width:0.5;stroke-miterlimit:10;" d="
		M515.78,374.29c-65.3-11.2-76.68-24.95-90.88-69.19c-17.12-53.34-66.33-92.47-125.28-92.47c-72.38,0-131.06,58.68-131.06,131.06
		c0,52.46,31.03,97.28,75.35,118.66c42.51,20.51,54.03,33.51,56.52,101.54l0.01-0.01c0.09,2.63,0.24,5.24,0.44,7.84
		c5.16,68.27-8.48,80.9-40.29,95.41l0.01,0.01c-32.43,14.83-54.98,47.53-54.98,85.52c0,51.92,42.09,94.01,94.01,94.01
		c39.67,0,73.57-24.58,87.37-59.33l0,0c12.93-32.58,24.88-46.65,93.76-45.03c0.04,0,0.08,0,0.12,0c0.07,0,0.14,0,0.22,0l0,0
		c1.49,0.04,2.99,0.06,4.49,0.06c102.32,0,185.27-82.95,185.27-185.27C670.84,465.06,603.62,389.36,515.78,374.29z"/>
	
		<linearGradient id="SVGID_00000165229974651412835660000009528363660252370584_" gradientUnits="userSpaceOnUse" x1="158.195" y1="725.8033" x2="531.3527" y2="352.6456">
		<stop  offset="0" style="stop-color:#FF4B4B"/>
		<stop  offset="1" style="stop-color:#FF744F"/>
	</linearGradient>
	
		<path style="fill:none;stroke:url(#SVGID_00000165229974651412835660000009528363660252370584_);stroke-width:0.5;stroke-miterlimit:10;" d="
		M512,380.41c-62.73-10.76-73.66-23.97-87.3-66.47c-16.45-51.24-63.72-88.83-120.35-88.83c-69.53,0-125.9,56.37-125.9,125.9
		c0,50.4,29.81,93.45,72.38,113.98c40.84,19.7,51.9,32.19,54.3,97.54l0.01-0.01c0.09,2.52,0.23,5.04,0.42,7.53
		c4.96,65.58-8.15,77.71-38.71,91.66l0.01,0.01c-31.16,14.24-52.82,45.66-52.82,82.15c0,49.88,40.43,90.31,90.31,90.31
		c38.11,0,70.67-23.61,83.94-56.99l0,0c12.42-31.3,23.9-44.82,90.07-43.26c0.04,0,0.08,0,0.11,0c0.07,0,0.14,0,0.21,0l0,0
		c1.43,0.03,2.87,0.05,4.31,0.05c98.29,0,177.98-79.68,177.98-177.98C660.96,467.61,596.38,394.88,512,380.41z"/>
	
		<linearGradient id="SVGID_00000084492869936677342820000003783312068633484727_" gradientUnits="userSpaceOnUse" x1="168.9027" y1="717.7733" x2="526.7849" y2="359.8911">
		<stop  offset="0" style="stop-color:#FF4B4B"/>
		<stop  offset="1" style="stop-color:#FF744F"/>
	</linearGradient>
	
		<path style="fill:none;stroke:url(#SVGID_00000084492869936677342820000003783312068633484727_);stroke-width:0.5;stroke-miterlimit:10;" d="
		M508.21,386.52c-60.16-10.32-70.64-22.99-83.73-63.75c-15.78-49.14-61.11-85.19-115.42-85.19c-66.68,0-120.74,54.06-120.74,120.74
		c0,48.33,28.59,89.62,69.42,109.31c39.16,18.89,49.77,30.87,52.07,93.55l0.01-0.01c0.09,2.42,0.22,4.83,0.4,7.22
		c4.75,62.89-7.81,74.53-37.12,87.9l0.01,0.01c-29.88,13.66-50.65,43.79-50.65,78.79c0,47.83,38.78,86.61,86.61,86.61
		c36.54,0,67.78-22.64,80.5-54.66l0,0c11.91-30.02,22.92-42.98,86.38-41.49c0.04,0,0.07,0,0.11,0c0.07,0,0.13,0,0.2,0l0,0
		c1.37,0.03,2.75,0.05,4.14,0.05c94.27,0,170.68-76.42,170.68-170.68C651.07,470.15,589.14,400.4,508.21,386.52z"/>
	
		<linearGradient id="SVGID_00000125578188119837861240000009762635979813110917_" gradientUnits="userSpaceOnUse" x1="179.6105" y1="709.7432" x2="522.2171" y2="367.1366">
		<stop  offset="0" style="stop-color:#FF4B4B"/>
		<stop  offset="1" style="stop-color:#FF744F"/>
	</linearGradient>
	
		<path style="fill:none;stroke:url(#SVGID_00000125578188119837861240000009762635979813110917_);stroke-width:0.5;stroke-miterlimit:10;" d="
		M504.43,392.64c-57.59-9.87-67.62-22.01-80.15-61.02c-15.1-47.04-58.5-81.55-110.49-81.55c-63.84,0-115.58,51.75-115.58,115.58
		c0,46.27,27.37,85.79,66.45,104.64c37.49,18.08,47.65,29.55,49.85,89.55l0.01-0.01c0.08,2.32,0.21,4.62,0.39,6.92
		c4.55,60.2-7.48,71.34-35.54,84.15l0.01,0.01c-28.6,13.07-48.49,41.92-48.49,75.42c0,45.79,37.12,82.91,82.91,82.91
		c34.98,0,64.88-21.68,77.06-52.32l0,0c11.41-28.73,21.94-41.15,82.69-39.72c0.03,0,0.07,0,0.1,0c0.06,0,0.13,0,0.19,0l0,0
		c1.32,0.03,2.63,0.05,3.96,0.05c90.24,0,163.39-73.15,163.39-163.39C641.18,472.69,581.9,405.92,504.43,392.64z"/>
	
		<linearGradient id="SVGID_00000070808334578805154650000008388445175893806742_" gradientUnits="userSpaceOnUse" x1="190.3182" y1="701.7131" x2="517.6493" y2="374.3821">
		<stop  offset="0" style="stop-color:#FF4B4B"/>
		<stop  offset="1" style="stop-color:#FF744F"/>
	</linearGradient>
	
		<path style="fill:none;stroke:url(#SVGID_00000070808334578805154650000008388445175893806742_);stroke-width:0.5;stroke-miterlimit:10;" d="
		M500.65,398.75c-55.02-9.43-64.61-21.02-76.57-58.3c-14.43-44.94-55.89-77.91-105.56-77.91c-60.99,0-110.43,49.44-110.43,110.43
		c0,44.2,26.15,81.96,63.49,99.97c35.82,17.28,45.52,28.23,47.62,85.55l0.01-0.01c0.08,2.21,0.2,4.42,0.37,6.61
		c4.35,57.52-7.14,68.16-33.95,80.39l0.01,0.01c-27.33,12.49-46.32,40.05-46.32,72.05c0,43.74,35.46,79.21,79.21,79.21
		c33.42,0,61.99-20.71,73.62-49.99l0,0c10.9-27.45,20.96-39.31,79-37.94c0.03,0,0.07,0,0.1,0c0.06,0,0.12,0,0.18,0l0,0
		c1.26,0.03,2.52,0.05,3.78,0.05c86.21,0,156.1-69.89,156.1-156.1C631.3,475.23,574.66,411.45,500.65,398.75z"/>
	
		<linearGradient id="SVGID_00000023971363622212741210000003777061764959307932_" gradientUnits="userSpaceOnUse" x1="201.026" y1="693.6831" x2="513.0815" y2="381.6276">
		<stop  offset="0" style="stop-color:#FF4B4B"/>
		<stop  offset="1" style="stop-color:#FF744F"/>
	</linearGradient>
	
		<path style="fill:none;stroke:url(#SVGID_00000023971363622212741210000003777061764959307932_);stroke-width:0.5;stroke-miterlimit:10;" d="
		M496.87,404.87c-52.45-8.99-61.59-20.04-73-55.58c-13.75-42.84-53.28-74.27-100.62-74.27c-58.14,0-105.27,47.13-105.27,105.27
		c0,42.14,24.93,78.13,60.52,95.3c34.14,16.47,43.39,26.91,45.4,81.56l0.01-0.01c0.08,2.11,0.19,4.21,0.35,6.3
		c4.14,54.83-6.81,64.97-32.36,76.63l0.01,0.01c-26.05,11.91-44.16,38.17-44.16,68.69c0,41.7,33.81,75.51,75.51,75.51
		c31.86,0,59.09-19.74,70.18-47.65l0,0c10.39-26.17,19.98-37.47,75.31-36.17c0.03,0,0.06,0,0.09,0c0.06,0,0.12,0,0.17,0l0,0
		c1.2,0.03,2.4,0.05,3.61,0.05c82.18,0,148.81-66.62,148.81-148.81C621.41,477.78,567.42,416.97,496.87,404.87z"/>
	
		<linearGradient id="SVGID_00000149345385001144057750000000509220288136087463_" gradientUnits="userSpaceOnUse" x1="211.7337" y1="685.653" x2="508.5137" y2="388.8731">
		<stop  offset="0" style="stop-color:#FF4B4B"/>
		<stop  offset="1" style="stop-color:#FF744F"/>
	</linearGradient>
	
		<path style="fill:none;stroke:url(#SVGID_00000149345385001144057750000000509220288136087463_);stroke-width:0.5;stroke-miterlimit:10;" d="
		M493.09,410.98c-49.88-8.55-58.57-19.06-69.42-52.85c-13.08-40.74-50.67-70.63-95.69-70.63c-55.29,0-100.11,44.82-100.11,100.11
		c0,40.07,23.7,74.3,57.55,90.63c32.47,15.66,41.27,25.59,43.17,77.56l0.01-0.01c0.07,2.01,0.18,4,0.33,5.99
		c3.94,52.14-6.48,61.79-30.78,72.88l0.01,0.01c-24.77,11.32-42,36.3-42,65.32c0,39.66,32.15,71.81,71.81,71.81
		c30.3,0,56.19-18.77,66.74-45.32l0,0c9.88-24.89,19-35.64,71.62-34.4c0.03,0,0.06,0,0.09,0c0.06,0,0.11,0,0.17,0l0,0
		c1.14,0.03,2.28,0.04,3.43,0.04c78.16,0,141.51-63.36,141.51-141.51C611.53,480.32,560.18,422.49,493.09,410.98z"/>
	
		<linearGradient id="SVGID_00000170987982153942884090000000951121168571788479_" gradientUnits="userSpaceOnUse" x1="222.4415" y1="677.623" x2="503.9459" y2="396.1186">
		<stop  offset="0" style="stop-color:#FF4B4B"/>
		<stop  offset="1" style="stop-color:#FF744F"/>
	</linearGradient>
	
		<path style="fill:none;stroke:url(#SVGID_00000170987982153942884090000000951121168571788479_);stroke-width:0.5;stroke-miterlimit:10;" d="
		M489.3,417.1c-47.31-8.11-55.55-18.08-65.84-50.13c-12.41-38.64-48.06-66.99-90.76-66.99c-52.44,0-94.95,42.51-94.95,94.95
		c0,38.01,22.48,70.47,54.59,85.96c30.8,14.86,39.14,24.28,40.95,73.56l0.01-0.01c0.07,1.9,0.17,3.8,0.32,5.68
		c3.74,49.46-6.14,58.61-29.19,69.12l0.01,0.01c-23.5,10.74-39.83,34.43-39.83,61.96c0,37.61,30.49,68.11,68.11,68.11
		c28.74,0,53.3-17.81,63.3-42.98l0,0c9.37-23.6,18.02-33.8,67.93-32.63c0.03,0,0.06,0,0.08,0c0.05,0,0.1,0,0.16,0l0,0
		c1.08,0.03,2.16,0.04,3.25,0.04c74.13,0,134.22-60.09,134.22-134.22C601.64,482.86,552.95,428.01,489.3,417.1z"/>
	
		<linearGradient id="SVGID_00000052086678240445820320000014050130913437344418_" gradientUnits="userSpaceOnUse" x1="233.1492" y1="669.5929" x2="499.3781" y2="403.3641">
		<stop  offset="0" style="stop-color:#FF4B4B"/>
		<stop  offset="1" style="stop-color:#FF744F"/>
	</linearGradient>
	
		<path style="fill:none;stroke:url(#SVGID_00000052086678240445820320000014050130913437344418_);stroke-width:0.5;stroke-miterlimit:10;" d="
		M485.52,423.21c-44.74-7.67-52.53-17.09-62.26-47.41c-11.73-36.54-45.44-63.35-85.83-63.35c-49.59,0-89.79,40.2-89.79,89.79
		c0,35.94,21.26,66.65,51.62,81.29c29.12,14.05,37.01,22.96,38.72,69.57l0.01-0.01c0.06,1.8,0.16,3.59,0.3,5.37
		c3.54,46.77-5.81,55.42-27.61,65.37l0.01,0c-22.22,10.16-37.67,32.56-37.67,58.59c0,35.57,28.84,64.4,64.4,64.4
		c27.18,0,50.4-16.84,59.86-40.65l0,0c8.86-22.32,17.04-31.96,64.24-30.85c0.03,0,0.05,0,0.08,0c0.05,0,0.1,0,0.15,0l0,0
		c1.02,0.02,2.05,0.04,3.08,0.04c70.1,0,126.93-56.83,126.93-126.93C591.76,485.4,545.71,433.53,485.52,423.21z"/>
	
		<linearGradient id="SVGID_00000054232591047939095990000014301267496511833524_" gradientUnits="userSpaceOnUse" x1="243.857" y1="661.5629" x2="494.8102" y2="410.6096">
		<stop  offset="0" style="stop-color:#FF4B4B"/>
		<stop  offset="1" style="stop-color:#FF744F"/>
	</linearGradient>
	
		<path style="fill:none;stroke:url(#SVGID_00000054232591047939095990000014301267496511833524_);stroke-width:0.5;stroke-miterlimit:10;" d="
		M481.74,429.33c-42.17-7.23-49.52-16.11-58.69-44.68c-11.06-34.44-42.83-59.71-80.9-59.71c-46.74,0-84.63,37.89-84.63,84.63
		c0,33.88,20.04,62.82,48.66,76.62c27.45,13.24,34.89,21.64,36.5,65.57l0.01-0.01c0.06,1.7,0.16,3.39,0.28,5.06
		c3.33,44.08-5.48,52.24-26.02,61.61l0,0c-20.94,9.57-35.5,30.69-35.5,55.22c0,33.53,27.18,60.7,60.7,60.7
		c25.61,0,47.51-15.87,56.42-38.31l0,0c8.35-21.04,16.07-30.13,60.54-29.08c0.03,0,0.05,0,0.08,0c0.05,0,0.09,0,0.14,0l0,0
		c0.96,0.02,1.93,0.04,2.9,0.04c66.07,0,119.64-53.56,119.64-119.64C581.87,487.94,538.47,439.06,481.74,429.33z"/>
	
		<linearGradient id="SVGID_00000108308164069575880540000013411553206898941105_" gradientUnits="userSpaceOnUse" x1="254.5648" y1="653.5328" x2="490.2424" y2="417.8551">
		<stop  offset="0" style="stop-color:#FF4B4B"/>
		<stop  offset="1" style="stop-color:#FF744F"/>
	</linearGradient>
	
		<path style="fill:none;stroke:url(#SVGID_00000108308164069575880540000013411553206898941105_);stroke-width:0.5;stroke-miterlimit:10;" d="
		M477.96,435.44c-39.6-6.79-46.5-15.13-55.11-41.96c-10.38-32.35-40.22-56.07-75.97-56.07c-43.89,0-79.47,35.58-79.47,79.47
		c0,31.81,18.82,58.99,45.69,71.95c25.78,12.43,32.76,20.32,34.27,61.57l0.01-0.01c0.06,1.59,0.15,3.18,0.26,4.75
		c3.13,41.39-5.14,49.05-24.43,57.86l0,0c-19.67,8.99-33.34,28.82-33.34,51.86c0,31.48,25.52,57,57,57
		c24.05,0,44.61-14.9,52.98-35.98l0,0c7.84-19.76,15.09-28.29,56.85-27.31c0.02,0,0.05,0,0.07,0c0.04,0,0.09,0,0.13,0l0,0
		c0.9,0.02,1.81,0.03,2.72,0.03c62.05,0,112.34-50.3,112.34-112.34C571.99,490.49,531.23,444.58,477.96,435.44z"/>
	
		<linearGradient id="SVGID_00000131325025967463129540000012013483749801699474_" gradientUnits="userSpaceOnUse" x1="265.2725" y1="645.5027" x2="485.6746" y2="425.1006">
		<stop  offset="0" style="stop-color:#FF4B4B"/>
		<stop  offset="1" style="stop-color:#FF744F"/>
	</linearGradient>
	
		<path style="fill:none;stroke:url(#SVGID_00000131325025967463129540000012013483749801699474_);stroke-width:0.5;stroke-miterlimit:10;" d="
		M474.18,441.56c-37.02-6.35-43.48-14.15-51.53-39.23c-9.71-30.25-37.61-52.43-71.04-52.43c-41.04,0-74.31,33.27-74.31,74.31
		c0,29.75,17.6,55.16,42.72,67.28c24.1,11.63,30.63,19,32.05,57.58l0.01-0.01c0.05,1.49,0.14,2.97,0.25,4.45
		c2.93,38.71-4.81,45.87-22.85,54.1l0,0c-18.39,8.41-31.17,26.95-31.17,48.49c0,29.44,23.86,53.3,53.3,53.3
		c22.49,0,41.72-13.94,49.54-33.64l0,0c7.33-18.47,14.11-26.45,53.16-25.54c0.02,0,0.04,0,0.07,0c0.04,0,0.08,0,0.12,0l0,0
		c0.85,0.02,1.69,0.03,2.54,0.03c58.02,0,105.05-47.03,105.05-105.05C562.1,493.03,523.99,450.1,474.18,441.56z"/>
	
		<linearGradient id="SVGID_00000103234826871501886500000009633120417885865624_" gradientUnits="userSpaceOnUse" x1="275.9803" y1="637.4727" x2="481.1068" y2="432.3461">
		<stop  offset="0" style="stop-color:#FF4B4B"/>
		<stop  offset="1" style="stop-color:#FF744F"/>
	</linearGradient>
	
		<path style="fill:none;stroke:url(#SVGID_00000103234826871501886500000009633120417885865624_);stroke-width:0.5;stroke-miterlimit:10;" d="
		M470.39,447.68c-34.45-5.91-40.46-13.17-47.95-36.51c-9.04-28.15-35-48.79-66.11-48.79c-38.19,0-69.16,30.96-69.16,69.16
		c0,27.68,16.38,51.33,39.76,62.61c22.43,10.82,28.51,17.68,29.82,53.58l0.01-0.01c0.05,1.39,0.13,2.77,0.23,4.14
		c2.72,36.02-4.47,42.69-21.26,50.35l0,0c-17.11,7.82-29.01,25.08-29.01,45.12c0,27.4,22.21,49.6,49.6,49.6
		c20.93,0,38.82-12.97,46.1-31.31l0,0c6.82-17.19,13.13-24.62,49.47-23.76c0.02,0,0.04,0,0.06,0c0.04,0,0.08,0,0.11,0l0,0
		c0.79,0.02,1.58,0.03,2.37,0.03c53.99,0,97.76-43.77,97.76-97.76C552.22,495.57,516.75,455.62,470.39,447.68z"/>
	
		<linearGradient id="SVGID_00000121266402054951331360000000736695162268649913_" gradientUnits="userSpaceOnUse" x1="286.688" y1="629.4426" x2="476.539" y2="439.5916">
		<stop  offset="0" style="stop-color:#FF4B4B"/>
		<stop  offset="1" style="stop-color:#FF744F"/>
	</linearGradient>
	
		<path style="fill:none;stroke:url(#SVGID_00000121266402054951331360000000736695162268649913_);stroke-width:0.5;stroke-miterlimit:10;" d="
		M466.61,453.79c-31.88-5.47-37.44-12.18-44.38-33.79c-8.36-26.05-32.39-45.15-61.17-45.15c-35.34,0-64,28.65-64,64
		c0,25.62,15.15,47.5,36.79,57.94c20.76,10.01,26.38,16.36,27.6,49.58l0.01,0c0.05,1.28,0.12,2.56,0.21,3.83
		c2.52,33.33-4.14,39.5-19.68,46.59l0,0c-15.84,7.24-26.85,23.21-26.85,41.76c0,25.35,20.55,45.9,45.9,45.9
		c19.37,0,35.92-12,42.66-28.97l0,0c6.31-15.91,12.15-22.78,45.78-21.99c0.02,0,0.04,0,0.06,0c0.04,0,0.07,0,0.11,0l0,0
		c0.73,0.02,1.46,0.03,2.19,0.03c49.96,0,90.47-40.5,90.47-90.47C542.33,498.11,509.51,461.15,466.61,453.79z"/>
	
		<linearGradient id="SVGID_00000103960136109703169070000012299163164889147810_" gradientUnits="userSpaceOnUse" x1="297.3958" y1="621.4125" x2="471.9712" y2="446.8371">
		<stop  offset="0" style="stop-color:#FF4B4B"/>
		<stop  offset="1" style="stop-color:#FF744F"/>
	</linearGradient>
	
		<path style="fill:none;stroke:url(#SVGID_00000103960136109703169070000012299163164889147810_);stroke-width:0.5;stroke-miterlimit:10;" d="
		M462.83,459.91c-29.31-5.03-34.42-11.2-40.8-31.06c-7.69-23.95-29.78-41.51-56.24-41.51c-32.5,0-58.84,26.34-58.84,58.84
		c0,23.55,13.93,43.67,33.83,53.27c19.08,9.21,24.25,15.04,25.37,45.59l0.01,0c0.04,1.18,0.11,2.35,0.2,3.52
		c2.32,30.65-3.81,36.32-18.09,42.83l0,0c-14.56,6.66-24.68,21.34-24.68,38.39c0,23.31,18.89,42.2,42.2,42.2
		c17.81,0,33.03-11.03,39.23-26.63l0,0c5.81-14.63,11.17-20.94,42.09-20.22c0.02,0,0.04,0,0.05,0c0.03,0,0.06,0,0.1,0l0,0
		c0.67,0.02,1.34,0.03,2.01,0.03c45.94,0,83.17-37.24,83.17-83.17C532.44,500.66,502.27,466.67,462.83,459.91z"/>
	
		<linearGradient id="SVGID_00000042714236988981586940000006969905396692241341_" gradientUnits="userSpaceOnUse" x1="308.1035" y1="613.3825" x2="467.4034" y2="454.0826">
		<stop  offset="0" style="stop-color:#FF4B4B"/>
		<stop  offset="1" style="stop-color:#FF744F"/>
	</linearGradient>
	
		<path style="fill:none;stroke:url(#SVGID_00000042714236988981586940000006969905396692241341_);stroke-width:0.5;stroke-miterlimit:10;" d="
		M459.05,466.02c-26.74-4.59-31.41-10.22-37.22-28.34c-7.01-21.85-27.17-37.87-51.31-37.87c-29.65,0-53.68,24.03-53.68,53.68
		c0,21.49,12.71,39.84,30.86,48.6c17.41,8.4,22.13,13.72,23.15,41.59l0,0c0.04,1.08,0.1,2.15,0.18,3.21
		c2.11,27.96-3.47,33.13-16.5,39.08l0,0c-13.28,6.07-22.52,19.47-22.52,35.03c0,21.26,17.24,38.5,38.5,38.5
		c16.25,0,30.13-10.07,35.79-24.3l0,0c5.3-13.34,10.19-19.11,38.4-18.44c0.02,0,0.03,0,0.05,0c0.03,0,0.06,0,0.09,0l0,0
		c0.61,0.01,1.22,0.02,1.84,0.02c41.91,0,75.88-33.97,75.88-75.88C522.56,503.2,495.03,472.19,459.05,466.02z"/>
	
		<linearGradient id="SVGID_00000178188735597805117950000007213074388412716175_" gradientUnits="userSpaceOnUse" x1="318.8113" y1="605.3524" x2="462.8356" y2="461.3281">
		<stop  offset="0" style="stop-color:#FF4B4B"/>
		<stop  offset="1" style="stop-color:#FF744F"/>
	</linearGradient>
	
		<path style="fill:none;stroke:url(#SVGID_00000178188735597805117950000007213074388412716175_);stroke-width:0.5;stroke-miterlimit:10;" d="
		M455.27,472.14c-24.17-4.15-28.39-9.24-33.65-25.62c-6.34-19.75-24.56-34.23-46.38-34.23c-26.8,0-48.52,21.72-48.52,48.52
		c0,19.42,11.49,36.01,27.9,43.93c15.74,7.59,20,12.41,20.93,37.59l0,0c0.04,0.97,0.09,1.94,0.16,2.9
		c1.91,25.27-3.14,29.95-14.92,35.32l0,0c-12.01,5.49-20.35,17.6-20.35,31.66c0,19.22,15.58,34.8,34.8,34.8
		c14.68,0,27.24-9.1,32.35-21.96l0,0c4.79-12.06,9.21-17.27,34.71-16.67c0.01,0,0.03,0,0.04,0c0.03,0,0.05,0,0.08,0l0,0
		c0.55,0.01,1.11,0.02,1.66,0.02c37.88,0,68.59-30.71,68.59-68.59C512.67,505.74,487.79,477.71,455.27,472.14z"/>
	
		<linearGradient id="SVGID_00000083047019791221175200000017630813201049466005_" gradientUnits="userSpaceOnUse" x1="329.519" y1="597.3223" x2="458.2678" y2="468.5736">
		<stop  offset="0" style="stop-color:#FF4B4B"/>
		<stop  offset="1" style="stop-color:#FF744F"/>
	</linearGradient>
	
		<path style="fill:none;stroke:url(#SVGID_00000083047019791221175200000017630813201049466005_);stroke-width:0.5;stroke-miterlimit:10;" d="
		M451.49,478.25c-21.6-3.7-25.37-8.26-30.07-22.89c-5.67-17.65-21.95-30.59-41.45-30.59c-23.95,0-43.36,19.41-43.36,43.36
		c0,17.36,10.27,32.18,24.93,39.26c14.06,6.78,17.87,11.09,18.7,33.59l0,0c0.03,0.87,0.08,1.73,0.14,2.59
		c1.71,22.59-2.81,26.76-13.33,31.57l0,0c-10.73,4.9-18.19,15.72-18.19,28.29c0,17.18,13.92,31.1,31.1,31.1
		c13.12,0,24.34-8.13,28.91-19.63l0,0c4.28-10.78,8.23-15.44,31.02-14.9c0.01,0,0.03,0,0.04,0c0.02,0,0.05,0,0.07,0l0,0
		c0.49,0.01,0.99,0.02,1.48,0.02c33.85,0,61.3-27.44,61.3-61.3C502.79,508.28,480.55,483.23,451.49,478.25z"/>
	
		<linearGradient id="SVGID_00000059296699806025342970000000370509071316646837_" gradientUnits="userSpaceOnUse" x1="340.2268" y1="589.2923" x2="453.7" y2="475.8191">
		<stop  offset="0" style="stop-color:#FF4B4B"/>
		<stop  offset="1" style="stop-color:#FF744F"/>
	</linearGradient>
	
		<path style="fill:none;stroke:url(#SVGID_00000059296699806025342970000000370509071316646837_);stroke-width:0.5;stroke-miterlimit:10;" d="
		M447.7,484.37c-19.03-3.26-22.35-7.27-26.49-20.17c-4.99-15.55-19.33-26.95-36.52-26.95c-21.1,0-38.2,17.1-38.2,38.2
		c0,15.29,9.05,28.36,21.96,34.59c12.39,5.98,15.75,9.77,16.48,29.6l0,0c0.03,0.77,0.07,1.53,0.13,2.29
		c1.5,19.9-2.47,23.58-11.75,27.81l0,0c-9.45,4.32-16.03,13.85-16.03,24.93c0,15.13,12.27,27.4,27.4,27.4
		c11.56,0,21.44-7.16,25.47-17.29l0,0c3.77-9.5,7.25-13.6,27.33-13.13c0.01,0,0.02,0,0.03,0c0.02,0,0.04,0,0.06,0l0,0
		c0.43,0.01,0.87,0.02,1.31,0.02c29.83,0,54-24.18,54-54C492.9,510.82,473.31,488.76,447.7,484.37z"/>
	
		<linearGradient id="SVGID_00000090985244031963624390000014288492134236060089_" gradientUnits="userSpaceOnUse" x1="350.9345" y1="581.2622" x2="449.1322" y2="483.0646">
		<stop  offset="0" style="stop-color:#FF4B4B"/>
		<stop  offset="1" style="stop-color:#FF744F"/>
	</linearGradient>
	
		<path style="fill:none;stroke:url(#SVGID_00000090985244031963624390000014288492134236060089_);stroke-width:0.5;stroke-miterlimit:10;" d="
		M443.92,490.48c-16.46-2.82-19.33-6.29-22.91-17.45c-4.32-13.45-16.72-23.31-31.59-23.31c-18.25,0-33.04,14.79-33.04,33.04
		c0,13.23,7.82,24.53,19,29.92c10.72,5.17,13.62,8.45,14.25,25.6l0,0c0.02,0.66,0.06,1.32,0.11,1.98
		c1.3,17.21-2.14,20.4-10.16,24.06l0,0c-8.18,3.74-13.86,11.98-13.86,21.56c0,13.09,10.61,23.7,23.7,23.7
		c10,0,18.55-6.2,22.03-14.96l0,0c3.26-8.21,6.27-11.76,23.64-11.35c0.01,0,0.02,0,0.03,0c0.02,0,0.04,0,0.05,0l0,0
		c0.38,0.01,0.75,0.01,1.13,0.01c25.8,0,46.71-20.91,46.71-46.71C483.02,513.37,466.07,494.28,443.92,490.48z"/>
	
		<linearGradient id="SVGID_00000168106082353136963060000000409488790062567318_" gradientUnits="userSpaceOnUse" x1="361.6423" y1="573.2322" x2="444.5644" y2="490.3101">
		<stop  offset="0" style="stop-color:#FF4B4B"/>
		<stop  offset="1" style="stop-color:#FF744F"/>
	</linearGradient>
	
		<path style="fill:none;stroke:url(#SVGID_00000168106082353136963060000000409488790062567318_);stroke-width:0.5;stroke-miterlimit:10;" d="
		M440.14,496.6c-13.89-2.38-16.31-5.31-19.34-14.72c-3.64-11.35-14.11-19.67-26.66-19.67c-15.4,0-27.88,12.48-27.88,27.88
		c0,11.16,6.6,20.7,16.03,25.25c9.04,4.36,11.49,7.13,12.03,21.6l0,0c0.02,0.56,0.05,1.12,0.09,1.67c1.1,14.52-1.8,17.21-8.57,20.3
		l0,0c-6.9,3.15-11.7,10.11-11.7,18.2c0,11.05,8.95,20,20,20c8.44,0,15.65-5.23,18.59-12.62l0,0c2.75-6.93,5.29-9.93,19.95-9.58
		c0.01,0,0.02,0,0.02,0c0.02,0,0.03,0,0.05,0l0,0c0.32,0.01,0.64,0.01,0.95,0.01c21.77,0,39.42-17.65,39.42-39.42
		C473.13,515.91,458.83,499.8,440.14,496.6z"/>
	
		<linearGradient id="SVGID_00000177474078805994852190000012408404487018224564_" gradientUnits="userSpaceOnUse" x1="372.35" y1="565.2021" x2="439.9966" y2="497.5556">
		<stop  offset="0" style="stop-color:#FF4B4B"/>
		<stop  offset="1" style="stop-color:#FF744F"/>
	</linearGradient>
	
		<path style="fill:none;stroke:url(#SVGID_00000177474078805994852190000012408404487018224564_);stroke-width:0.5;stroke-miterlimit:10;" d="
		M436.36,502.71c-11.32-1.94-13.3-4.33-15.76-12c-2.97-9.25-11.5-16.03-21.72-16.03c-12.55,0-22.73,10.17-22.73,22.73
		c0,9.1,5.38,16.87,13.07,20.57c7.37,3.56,9.37,5.81,9.8,17.61l0,0c0.02,0.46,0.04,0.91,0.08,1.36c0.89,11.84-1.47,14.03-6.99,16.54
		l0,0c-5.62,2.57-9.53,8.24-9.53,14.83c0,9,7.3,16.3,16.3,16.3c6.88,0,12.76-4.26,15.15-10.29l0,0c2.24-5.65,4.31-8.09,16.26-7.81
		c0.01,0,0.01,0,0.02,0c0.01,0,0.02,0,0.04,0l0,0c0.26,0.01,0.52,0.01,0.78,0.01c17.74,0,32.13-14.38,32.13-32.13
		C463.25,518.45,451.59,505.32,436.36,502.71z"/>
	
		<linearGradient id="SVGID_00000116937811393980472940000012709222194669299355_" gradientUnits="userSpaceOnUse" x1="383.0578" y1="557.1721" x2="435.4288" y2="504.8011">
		<stop  offset="0" style="stop-color:#FF4B4B"/>
		<stop  offset="1" style="stop-color:#FF744F"/>
	</linearGradient>
	
		<path style="fill:none;stroke:url(#SVGID_00000116937811393980472940000012709222194669299355_);stroke-width:0.5;stroke-miterlimit:10;" d="
		M432.58,508.83c-8.75-1.5-10.28-3.34-12.18-9.27c-2.3-7.15-8.89-12.39-16.79-12.39c-9.7,0-17.57,7.87-17.57,17.57
		c0,7.03,4.16,13.04,10.1,15.9c5.7,2.75,7.24,4.49,7.58,13.61l0,0c0.01,0.35,0.03,0.7,0.06,1.05c0.69,9.15-1.14,10.84-5.4,12.79l0,0
		c-4.35,1.99-7.37,6.37-7.37,11.46c0,6.96,5.64,12.6,12.6,12.6c5.32,0,9.86-3.29,11.71-7.95l0,0c1.73-4.37,3.33-6.25,12.57-6.04
		c0.01,0,0.01,0,0.02,0c0.01,0,0.02,0,0.03,0l0,0c0.2,0,0.4,0.01,0.6,0.01c13.71,0,24.83-11.12,24.83-24.83
		C453.36,520.99,444.35,510.85,432.58,508.83z"/>
	
		<linearGradient id="SVGID_00000036214225797983583510000014577082296439283616_" gradientUnits="userSpaceOnUse" x1="393.7655" y1="549.142" x2="430.861" y2="512.0466">
		<stop  offset="0" style="stop-color:#FF4B4B"/>
		<stop  offset="1" style="stop-color:#FF744F"/>
	</linearGradient>
	
		<path style="fill:none;stroke:url(#SVGID_00000036214225797983583510000014577082296439283616_);stroke-width:0.5;stroke-miterlimit:10;" d="
		M428.79,514.94c-6.18-1.06-7.26-2.36-8.6-6.55c-1.62-5.05-6.28-8.75-11.86-8.75c-6.85,0-12.41,5.56-12.41,12.41
		c0,4.97,2.94,9.21,7.13,11.23c4.02,1.94,5.11,3.17,5.35,9.61l0,0c0.01,0.25,0.02,0.5,0.04,0.74c0.49,6.46-0.8,7.66-3.81,9.03l0,0
		c-3.07,1.4-5.21,4.5-5.21,8.1c0,4.92,3.98,8.9,8.9,8.9c3.76,0,6.97-2.33,8.27-5.62l0,0c1.22-3.08,2.36-4.42,8.88-4.26
		c0,0,0.01,0,0.01,0c0.01,0,0.01,0,0.02,0l0,0c0.14,0,0.28,0.01,0.42,0.01c9.69,0,17.54-7.85,17.54-17.54
		C443.47,523.54,437.11,516.37,428.79,514.94z"/>
	
		<linearGradient id="SVGID_00000075155251112096809320000008005024486119225482_" gradientUnits="userSpaceOnUse" x1="404.4733" y1="541.1119" x2="426.3016" y2="519.2836">
		<stop  offset="0" style="stop-color:#FF4B4B"/>
		<stop  offset="1" style="stop-color:#FF744F"/>
	</linearGradient>
	
		<path style="fill:none;stroke:url(#SVGID_00000075155251112096809320000008005024486119225482_);stroke-width:0.5;stroke-miterlimit:10;" d="
		M425.01,521.06c-3.61-0.65-4.21-1.39-5.03-3.83c-0.91-2.96-3.67-5.11-6.93-5.11c-4,0-7.25,3.25-7.25,7.25c0,2.9,1.71,5.4,4.17,6.56
		c2.34,1.16,2.99,1.85,3.13,5.62l0,0c0.01,0.15,0.01,0.29,0.02,0.43c0.28,3.78-0.47,4.47-2.23,5.28l0,0
		c-1.79,0.82-3.04,2.63-3.04,4.73c0,2.87,2.33,5.2,5.2,5.2c2.19,0,4.07-1.36,4.83-3.28l0,0c0.72-1.8,1.38-2.58,5.19-2.49
		c0,0,0,0,0.01,0c0,0,0.01,0,0.01,0l0,0c0.08,0,0.17,0,0.25,0c5.66,0,10.25-4.59,10.25-10.25
		C433.59,526.08,429.88,521.86,425.01,521.06z"/>
</g>
<g>
</g>
<g>
</g>
<g>
</g>
<g>
</g>
<g>
</g>
<g>
</g>
</svg>
