<?xml version="1.0" encoding="utf-8"?>
<!-- Generator: Adobe Illustrator 28.1.0, SVG Export Plug-In . SVG Version: 6.00 Build 0)  -->
<svg version="1.1" id="Ebene_1" xmlns="http://www.w3.org/2000/svg" xmlns:xlink="http://www.w3.org/1999/xlink" x="0px" y="0px"
	 viewBox="0 0 1056.67 957.21" style="enable-background:new 0 0 1056.67 957.21;" xml:space="preserve">
<style type="text/css">
	.st0{fill-rule:evenodd;clip-rule:evenodd;fill:url(#SVGID_1_);}
</style>
<linearGradient id="SVGID_1_" gradientUnits="userSpaceOnUse" x1="215.1342" y1="-1006.0436" x2="1242.1876" y2="-803.2586" gradientTransform="matrix(0.5567 -0.8307 0.8307 0.5567 855.0745 1633.6858)">
	<stop  offset="0" style="stop-color:#FF4B4B"/>
	<stop  offset="1" style="stop-color:#FF744F"/>
</linearGradient>
<path class="st0" d="M692.59,212.86c-166.7,97.32-270.64,28.99-318.34-102.89c-0.01-0.02-0.02-0.04-0.02-0.06
	c-0.1-0.28-0.21-0.55-0.31-0.83l0,0.01c-11.47-32.02-32.9-60.79-63.32-81.19C235.02-22.74,132.69-2.54,82.04,73.03
	c-40.37,60.24-35.69,137.44,6.13,191.96l-0.02,0c37.52,48.91,43.88,83.04-25.87,175.82l0,0c-3.35,4.46-6.6,9.02-9.74,13.71
	c-95.37,142.29-57.33,334.95,84.96,430.32c109.02,73.07,247.61,67.82,349.35-2.63c148.99-98.35,215.28-61.16,276.19,12.88
	c10.3,12.93,22.71,24.52,37.17,34.21c75.57,50.65,177.9,30.45,228.55-45.13c48.6-72.52,31.93-169.65-36.27-222.13l0.06-0.01
	c-38.22-29.49-42.55-62.15-1.8-115.02c3.07-3.99,6.05-8.1,8.9-12.34c70.04-104.5,42.1-246-62.4-316.04
	C861.36,167.76,765.97,168.58,692.59,212.86z"/>
<g>
</g>
<g>
</g>
<g>
</g>
<g>
</g>
<g>
</g>
<g>
</g>
</svg>
